<?xml version="1.0" encoding="UTF-8"?>
<svg xmlns="http://www.w3.org/2000/svg" xmlns:xlink="http://www.w3.org/1999/xlink" width="2836" height="2835" viewBox="0 0 2836 2835">
<path fill-rule="evenodd" fill="rgb(100%, 100%, 100%)" fill-opacity="1" d="M 1 0.351562 L 2835.640625 0.351562 L 2835.640625 2835 L 1 2835 L 1 0.351562 "/>
<path fill-rule="evenodd" fill="rgb(0%, 0%, 0%)" fill-opacity="1" d="M 1793.570312 2415.585938 C 1797.019531 2416.246094 1842.5 2445.472656 1877.878906 2456.59375 C 1912.320312 2467.414062 1944.871094 2475.695312 1983.21875 2478.671875 C 2043.078125 2483.316406 2096.828125 2475.734375 2151.511719 2455.253906 C 2171.851562 2447.632812 2178.269531 2437.9375 2193.039062 2431.242188 C 2195.78125 2459.207031 2196.398438 2463.917969 2168.660156 2479.65625 C 2081.761719 2528.960938 1955.308594 2519.578125 1862.441406 2491.542969 C 1818.480469 2478.269531 1790.800781 2466.027344 1793.570312 2415.585938 Z M 1876.699219 2197.351562 C 1885.308594 2183.710938 1936.628906 2169.933594 1959.851562 2167.453125 C 2030.28125 2159.925781 2085.859375 2174.136719 2135.441406 2220.800781 C 2146.160156 2230.886719 2178.378906 2271.683594 2179.851562 2294.117188 C 2194.800781 2311.703125 2193.359375 2375.59375 2188.53125 2401.050781 C 2183.121094 2429.554688 2149.621094 2443.382812 2122.410156 2452.851562 C 2035.371094 2483.136719 1906.871094 2470.648438 1833.429688 2421.527344 C 1804.371094 2402.09375 1793.039062 2386.40625 1789.171875 2348.058594 C 1785.578125 2312.546875 1793.820312 2278.449219 1809.808594 2253.480469 C 1820.511719 2236.769531 1852.808594 2203.339844 1876.699219 2197.351562 Z M 944.425781 2189.753906 C 962.109375 2196.140625 978.910156 2207.363281 1001.378906 2214.109375 C 1077.179688 2236.867188 1130.128906 2227.761719 1201.550781 2199.851562 C 1231.46875 2188.160156 1300.261719 2151 1312.261719 2150.761719 C 1347.898438 2150.0625 1383.871094 2148.878906 1419.199219 2139.921875 C 1434.070312 2136.148438 1436.769531 2131.699219 1447.308594 2127.59375 C 1453.558594 2161.074219 1428.011719 2160.089844 1401.269531 2165.6875 C 1373.25 2171.554688 1351.28125 2173.253906 1321.878906 2173.703125 C 1307.109375 2173.933594 1305.351562 2178.519531 1292.800781 2185.003906 C 1261.019531 2201.421875 1238.75 2212.71875 1202.921875 2225.433594 C 1143.660156 2246.472656 1047.660156 2263.503906 984.460938 2238.355469 C 958.039062 2227.84375 948.679688 2221.640625 944.425781 2189.753906 Z M 1346.078125 2138.800781 C 1331.738281 2145.378906 1309.238281 2138.441406 1295.539062 2144.417969 C 1255.390625 2161.933594 1244.558594 2172.828125 1181.429688 2196.6875 C 1116.949219 2221.054688 1063.710938 2225.621094 995.351562 2203.355469 C 970.371094 2195.214844 945.410156 2173.035156 934.824219 2152.878906 C 910.328125 2106.257812 926.308594 2034.414062 984.863281 2002.429688 C 1007.171875 1990.246094 1048.820312 1978.785156 1076.019531 1989.574219 C 1121.929688 1996.164062 1162.421875 2025.488281 1191.238281 2046.023438 C 1210.71875 2059.90625 1228.960938 2079.675781 1238.960938 2085.160156 C 1263.890625 2098.839844 1287.710938 2087.578125 1314.261719 2092.121094 C 1319.03125 2088.660156 1321.121094 2088.257812 1331.230469 2085.835938 C 1346.96875 2082.0625 1365.730469 2074.785156 1380.410156 2067.617188 C 1412.160156 2052.101562 1423.261719 2039.945312 1438.75 2032.386719 C 1444.378906 2057.144531 1464.308594 2075.671875 1434.269531 2116.679688 C 1425.179688 2129.082031 1415.980469 2129.898438 1396.011719 2133.800781 C 1380.519531 2136.828125 1361.648438 2141.367188 1346.078125 2138.800781 Z M 1366.339844 1672.011719 C 1347.648438 1682.789062 1322.601562 1667.03125 1316.398438 1653.941406 C 1332.679688 1646.878906 1366.488281 1610.488281 1387.910156 1595.039062 L 1392.359375 1618.820312 C 1393.921875 1644.289062 1384.980469 1664.171875 1366.339844 1672.011719 Z M 1440.269531 1621.960938 C 1451.910156 1651.988281 1433.921875 1687.550781 1408.53125 1690.421875 C 1398.03125 1697.691406 1374.699219 1692.96875 1363.300781 1687.859375 C 1375 1679.5 1379.128906 1679.988281 1389.449219 1669.128906 C 1398.019531 1660.121094 1398.328125 1655.621094 1402.460938 1645.949219 L 1405.109375 1640.46875 C 1405.269531 1639.441406 1405.769531 1639.230469 1406.121094 1638.621094 L 1405.261719 1634.261719 C 1412 1607.761719 1403.441406 1601.96875 1399.019531 1581.441406 C 1418.578125 1563.199219 1414.78125 1564.199219 1425.421875 1553.410156 Z M 750.15625 1562.859375 C 719.902344 1581.878906 670.433594 1619.160156 649.640625 1645.5 C 634.664062 1664.46875 616.585938 1706.378906 613.664062 1708.351562 C 595.472656 1720.660156 549.210938 1709.441406 536.574219 1697.488281 C 516.390625 1678.421875 526.757812 1640.308594 541.878906 1624.570312 C 579.820312 1585.050781 640.527344 1581.441406 692.714844 1578.699219 C 719.4375 1577.300781 735.972656 1539.148438 758.578125 1555.890625 Z M 1824.101562 1525.109375 C 1836.28125 1524.929688 1847.78125 1529.308594 1862.148438 1528.78125 C 1877.71875 1528.191406 1885.421875 1524.949219 1899.320312 1520.980469 C 1890.539062 1570.828125 1840.019531 1552.988281 1824.101562 1525.109375 Z M 1927.21875 1505.238281 C 1929.238281 1499.128906 1932.261719 1496.488281 1938.859375 1492.671875 C 1959.550781 1480.71875 1974.011719 1496.128906 1980.050781 1514.589844 C 1960.660156 1522.988281 1941.988281 1518.71875 1927.21875 1505.238281 Z M 1183.550781 1602.269531 C 1193.988281 1614.398438 1192.058594 1646.738281 1191.96875 1664.429688 C 1191.640625 1726.71875 1150.238281 1792.25 1098.039062 1756.03125 C 1101.390625 1748.550781 1106.511719 1743.488281 1110.960938 1735.441406 C 1118.628906 1721.558594 1127.191406 1703.46875 1130.078125 1687.320312 C 1131.449219 1679.648438 1132.988281 1671.371094 1130.589844 1664.941406 C 1127.769531 1657.371094 1135.691406 1663.148438 1126.730469 1659.878906 L 1128.03125 1663.019531 C 1106.480469 1732.839844 1064.851562 1779.378906 988.699219 1783.328125 C 992.722656 1773.449219 987.742188 1785.171875 991.816406 1777.851562 C 1000.289062 1762.628906 996.285156 1767.359375 992.960938 1765.179688 C 989.222656 1773.289062 983.28125 1779.960938 975.421875 1785.339844 C 972.625 1788.269531 975.148438 1785.679688 971.472656 1788.949219 C 970.964844 1789.410156 969.40625 1790.761719 968.878906 1791.21875 C 967.09375 1792.78125 965.042969 1794.660156 962.433594 1796.730469 C 933.886719 1819.328125 878.195312 1848.097656 849.777344 1816.800781 C 853.828125 1804.53125 863.195312 1800.828125 871.117188 1792.308594 C 878.105469 1784.789062 884.839844 1774.800781 892.613281 1767.179688 C 901.6875 1752.230469 959.144531 1688.351562 963.257812 1659.898438 C 947.261719 1671.128906 893.980469 1750.539062 855.425781 1783.21875 C 848.488281 1790.488281 830.949219 1802.78125 820.777344 1809.460938 C 801.148438 1822.351562 724.195312 1846.355469 749.003906 1764.21875 C 752.53125 1752.539062 753.109375 1749.199219 758.8125 1744.25 C 760.441406 1722.449219 803.722656 1675.21875 815.265625 1661.648438 C 835.910156 1637.398438 885.261719 1602.519531 887.316406 1595.359375 C 847.230469 1609.058594 794.550781 1665.378906 785.175781 1671.25 L 746.59375 1718.351562 C 723.28125 1752.019531 732.050781 1745.21875 717.214844 1773.359375 C 710.816406 1785.488281 651.976562 1821.628906 636.089844 1778.78125 C 632.960938 1770.351562 630.019531 1752.128906 635.5625 1743.789062 C 631.371094 1719.570312 651.859375 1679.640625 662.652344 1663.359375 C 688.660156 1624.140625 734.382812 1586.511719 778.234375 1564.308594 C 795.144531 1555.75 846.863281 1533.710938 850.601562 1530.351562 L 831.3125 1530.640625 C 826.410156 1535.570312 797.898438 1542.328125 788.449219 1543.601562 C 774.570312 1545.460938 756.828125 1532.230469 749.882812 1527.75 C 754.046875 1517.789062 757.835938 1519.070312 762.984375 1508.429688 C 748.140625 1512.539062 734.363281 1521.699219 719.578125 1527.351562 C 679.203125 1542.789062 599.574219 1553.898438 583.746094 1512.871094 C 571.363281 1480.769531 608.617188 1451.371094 625.675781 1440.699219 C 685.933594 1403.011719 787.023438 1385.789062 851.949219 1437.519531 C 877.316406 1457.738281 861.640625 1446.289062 895.65625 1451.78125 C 945.230469 1459.78125 983.84375 1476.558594 1024.21875 1501.621094 C 1032.570312 1506.800781 1051.808594 1520.980469 1058.621094 1523.621094 C 1057.75 1513.808594 1051.121094 1510.859375 1046.570312 1501.828125 C 1064.550781 1491.320312 1070.25 1482 1098.210938 1490.519531 C 1138.101562 1502.660156 1184.820312 1565.410156 1183.550781 1602.269531 Z M 2040.339844 1498.011719 C 2047.191406 1493.921875 2070.199219 1485.128906 2079.289062 1480.699219 C 2085.089844 1486.449219 2090.238281 1494.710938 2095.378906 1501.191406 C 2101.78125 1509.238281 2105.96875 1511.070312 2112.578125 1517.339844 C 2096.398438 1545 2049.828125 1516.039062 2040.339844 1498.011719 Z M 2041.191406 1517.300781 C 2024.058594 1532.171875 1992.941406 1520.921875 1976.160156 1496.429688 C 1984.851562 1496.878906 1993.460938 1499.089844 2002.820312 1499.808594 C 2012.921875 1500.578125 2021.5 1499.25 2031.25 1500.03125 Z M 1524.371094 1591.730469 C 1509.378906 1602.960938 1468.871094 1606.53125 1446.488281 1607.871094 C 1442.851562 1588.011719 1435.171875 1562.210938 1435.371094 1541.089844 C 1447.570312 1530.339844 1477.800781 1492.039062 1477.699219 1467.839844 C 1465.808594 1491.378906 1438.621094 1521.929688 1421.910156 1537.53125 C 1410.621094 1548.078125 1401.851562 1559.5 1389.871094 1570.671875 C 1348.648438 1609.121094 1260.601562 1685.269531 1201.050781 1699.328125 C 1204.128906 1653.339844 1208 1641.039062 1196.808594 1595.761719 C 1183.878906 1546.441406 1171.730469 1528.351562 1142.121094 1494.640625 C 1137.898438 1489.839844 1140.398438 1493.410156 1137.929688 1488.359375 C 1146.589844 1481.761719 1176.621094 1467.738281 1187.429688 1462.21875 C 1205.039062 1453.230469 1220.480469 1445.5 1232.871094 1432.96875 C 1257.078125 1408.488281 1281.019531 1383.25 1302.878906 1353.421875 C 1324.601562 1323.789062 1345.421875 1294.730469 1376.800781 1277.828125 C 1488.050781 1217.890625 1637.789062 1333.550781 1648.300781 1418.339844 C 1658.109375 1497.46875 1582.828125 1578.25 1524.371094 1591.730469 Z M 1695.851562 1362.960938 C 1714.339844 1363.371094 1715.140625 1372.890625 1715.140625 1391.898438 C 1709.789062 1388.320312 1707.429688 1384.660156 1703.308594 1379.621094 C 1696.660156 1371.480469 1696.210938 1375.878906 1695.851562 1362.960938 Z M 1482.28125 1213.089844 C 1504.710938 1212.148438 1556.289062 1248.140625 1571 1258.699219 C 1599.660156 1279.28125 1617.289062 1299.160156 1638.820312 1325.929688 C 1657.46875 1349.109375 1676.058594 1378.671875 1692.988281 1406.839844 C 1728.058594 1465.199219 1713.351562 1438.710938 1741.21875 1459.828125 C 1749.070312 1465.78125 1753.210938 1470.148438 1758.769531 1476.109375 C 1842.339844 1565.660156 1808.179688 1656.800781 1812.839844 1682.640625 L 1842.171875 1788.128906 C 1846.699219 1806.359375 1850.859375 1824 1855.699219 1842.132812 C 1866.21875 1881.589844 1861.179688 1860.222656 1881.589844 1880.433594 L 1913.800781 1909.484375 C 1925.558594 1920.355469 1933.25 1930.519531 1944.289062 1941.699219 C 1963.21875 1960.859375 1980.351562 1987.53125 1995.878906 2013.140625 C 2011.679688 2039.1875 1999.601562 2030.222656 2028.050781 2041.21875 C 2071.058594 2057.839844 2104.050781 2102.234375 2087.558594 2159.882812 C 2064.710938 2160.902344 2026.019531 2150.578125 1994.820312 2151.230469 C 1962.648438 2151.902344 1932.671875 2158.574219 1905.089844 2167.871094 C 1857.890625 2183.78125 1818.710938 2208.3125 1785.910156 2243.992188 L 1777.839844 2250.839844 C 1762.609375 2243.285156 1751.359375 2231.078125 1744.089844 2214.175781 C 1721.121094 2160.796875 1753.890625 2165.914062 1719.578125 2137.484375 C 1687.089844 2110.578125 1637.550781 2056.410156 1620.871094 2021.507812 C 1598.289062 1974.261719 1569.738281 1866.074219 1555.980469 1843.21875 C 1551.550781 1851.316406 1555.800781 1867.492188 1556.269531 1878.757812 C 1464.839844 1867.734375 1386.78125 1800.179688 1378.25 1797.121094 C 1381.648438 1807.640625 1400.378906 1828.621094 1407.910156 1834.691406 C 1380.539062 1844.652344 1320.449219 1859.191406 1312.109375 1879.464844 C 1346.238281 1872.210938 1357.761719 1861.96875 1367.621094 1874.339844 C 1378.570312 1888.097656 1389.398438 1907.101562 1400.429688 1918.824219 C 1415.519531 1934.859375 1441.761719 1938.242188 1441.308594 1982.738281 C 1441.058594 2006.828125 1437.261719 2008.65625 1423.269531 2018.867188 C 1404.160156 2032.820312 1382.859375 2046.957031 1358.609375 2057.863281 C 1330.730469 2070.40625 1262.050781 2090.644531 1234.261719 2065.738281 C 1213.03125 2046.714844 1170.398438 2010.515625 1145.25 1998.023438 C 1126.058594 1988.496094 1091.820312 1973.449219 1070.5 1968.601562 C 1074.648438 1952.953125 1085.179688 1941.125 1092.210938 1931.609375 C 1100.609375 1934.964844 1093.589844 1931.09375 1100.441406 1936.820312 C 1103.359375 1939.261719 1104.488281 1941.011719 1106.890625 1943.320312 C 1104.53125 1926.664062 1062.351562 1840.304688 1071.640625 1787.511719 C 1073.269531 1778.25 1078.179688 1777.351562 1085.71875 1773.46875 C 1102.449219 1788.949219 1114.03125 1802.730469 1147.441406 1786.441406 C 1165.871094 1777.449219 1168.488281 1773.238281 1181.820312 1753.289062 C 1200.300781 1725.628906 1182.371094 1744.019531 1219.859375 1721.359375 C 1230.21875 1715.109375 1237.699219 1710.691406 1247.980469 1703.648438 C 1266.308594 1691.109375 1284.058594 1676.898438 1302.761719 1666.070312 L 1353.878906 1700.039062 C 1371.601562 1709.101562 1405.738281 1715.78125 1422.691406 1701.351562 C 1446.878906 1689.929688 1459 1656.039062 1452.441406 1623.078125 C 1551.441406 1609.488281 1646.050781 1547.769531 1654.019531 1446.789062 C 1659.378906 1378.910156 1626.269531 1345.53125 1595.828125 1315.871094 C 1562.820312 1283.710938 1536.238281 1263.359375 1476.46875 1248.53125 L 1445.140625 1244.269531 C 1451.5 1236.910156 1455.46875 1236.089844 1463.28125 1229.269531 C 1469.960938 1223.449219 1475.070312 1218.53125 1482.28125 1213.089844 Z M 1862.441406 1282.820312 C 1875.089844 1298.980469 1880.941406 1371.71875 1829.558594 1390.640625 C 1785.160156 1406.988281 1737.660156 1385.898438 1721.429688 1357.5 L 1740.710938 1350.898438 C 1727.351562 1341.320312 1703.78125 1350.710938 1688.609375 1350.839844 L 1656.308594 1306.449219 C 1648.289062 1303.109375 1619.820312 1261.910156 1553.21875 1229.910156 C 1562.601562 1224.21875 1583.390625 1221.761719 1595.75 1217.019531 C 1621.839844 1207 1620.230469 1201.460938 1629.71875 1195.589844 C 1644.429688 1186.488281 1711.570312 1188.808594 1729.898438 1193.859375 C 1770.5 1205.058594 1844.699219 1246.480469 1862.441406 1282.820312 Z M 1964.171875 1372.511719 L 1968.921875 1372.308594 C 1976.480469 1354.769531 1979.398438 1334.78125 1978.378906 1309.390625 C 2002.710938 1308.519531 2038.328125 1322.691406 2056.238281 1332.929688 C 2080.808594 1346.980469 2092.328125 1357.839844 2106.480469 1384.171875 C 2111.859375 1401.03125 2117.109375 1396.320312 2133.828125 1404.828125 C 2151.921875 1414.03125 2175.949219 1433.328125 2185.101562 1450.101562 C 2237.800781 1546.609375 2108.089844 1532.230469 2084.269531 1473.890625 C 2093.28125 1460.769531 2112.011719 1464.871094 2114.660156 1443.550781 C 2079 1460.75 2070.148438 1478.441406 2009.351562 1479.238281 C 1940.398438 1480.148438 1925.871094 1448.929688 1903.199219 1441.710938 C 1907.511719 1459.769531 1922.921875 1466 1931.910156 1478.210938 C 1905.71875 1492.53125 1893.488281 1504.109375 1859.449219 1512.171875 C 1845.628906 1515.441406 1826.53125 1516.570312 1814.679688 1509.410156 C 1808.339844 1505.578125 1807.691406 1501.128906 1803.339844 1494.238281 C 1799.171875 1487.628906 1797.121094 1486.199219 1793.410156 1478.140625 C 1826.871094 1481.761719 1880.609375 1479.78125 1894.390625 1453.101562 C 1874.648438 1459.691406 1868.628906 1465.039062 1843.050781 1466.378906 C 1799.671875 1468.648438 1779.691406 1461.289062 1753.640625 1435.378906 C 1739.171875 1420.988281 1737.171875 1416.5 1736.839844 1391.058594 C 1768.75 1404.351562 1785.160156 1415.75 1826.28125 1401.230469 C 1882.371094 1384.46875 1894.351562 1309.289062 1862.519531 1261.421875 C 1858.179688 1254.898438 1834.949219 1231.519531 1829.269531 1226.429688 C 1877.101562 1218.601562 1916.519531 1233.398438 1936.851562 1259.398438 C 1970.859375 1302.890625 1963.941406 1310.960938 1964.171875 1372.511719 Z M 1143.601562 1184.988281 C 1191.308594 1189.679688 1244.558594 1181.570312 1285.921875 1157.96875 C 1297.488281 1151.371094 1312.390625 1138.761719 1323.289062 1135.171875 C 1338.320312 1182.988281 1334.269531 1225.160156 1278.648438 1231.398438 C 1278.28125 1230.769531 1277.988281 1229.910156 1277.800781 1229.378906 L 1275.300781 1221.171875 C 1274.828125 1219.191406 1274.609375 1216.488281 1273.890625 1213.519531 C 1268.628906 1224.191406 1268.199219 1244.628906 1262.960938 1255.609375 C 1237.980469 1307.929688 1179.320312 1290.808594 1153.238281 1288.070312 C 1139 1311.851562 1136.398438 1333.539062 1100.191406 1333.308594 C 1074.148438 1333.148438 1047.199219 1311.910156 1035.078125 1300.539062 L 1033.570312 1305.128906 C 1031.320312 1308.410156 1037.898438 1305.011719 1029 1308.75 C 1027.800781 1309.261719 1017.339844 1311.089844 1015.160156 1311.261719 C 989.75 1313.148438 958.445312 1299.558594 952.078125 1268.75 C 998.339844 1279.628906 1035.21875 1274.46875 1073.921875 1257.011719 C 1124.601562 1234.140625 1131.261719 1197.78125 1143.601562 1184.988281 Z M 1511.71875 1161.640625 C 1563.101562 1173.210938 1565.480469 1168.929688 1606.621094 1147.808594 C 1618.699219 1155.480469 1624.601562 1166.25 1614.308594 1182.511719 C 1594.621094 1213.609375 1519.53125 1212.589844 1496.011719 1196.558594 C 1500.179688 1185.179688 1507.988281 1177.109375 1511.71875 1161.640625 Z M 874.453125 1125.921875 C 865.402344 1097.488281 870.339844 1066.109375 884.027344 1044.738281 C 906.472656 1092.769531 901.992188 1070.089844 885.28125 1102.199219 C 881.515625 1109.441406 878.035156 1121.199219 874.453125 1125.921875 Z M 1263.96875 1012.921875 C 1251.390625 1018.148438 1241.171875 1011.300781 1248.328125 1000.101562 C 1252.820312 993.070312 1268.320312 991.789062 1263.96875 1012.921875 Z M 1042.761719 1001.261719 C 1035.828125 1000.699219 1031.980469 1001 1032.46875 991.589844 C 1032.890625 983.5 1034.578125 984.609375 1039.898438 982.980469 C 1047.390625 989.320312 1047.128906 991.789062 1042.761719 1001.261719 Z M 1275.679688 1040.210938 C 1276.191406 1079.488281 1236.25 1100.808594 1214.640625 1070.039062 C 1197.160156 1045.148438 1198.199219 1002.519531 1214.589844 974.949219 L 1231.851562 976 C 1232.128906 983.238281 1223.890625 995.601562 1222.53125 1008.359375 C 1217.929688 1051.429688 1247.019531 1085.988281 1275.679688 1040.210938 Z M 1194.558594 1027.25 C 1194.871094 1049.890625 1203.421875 1068.871094 1214.480469 1079.859375 C 1232.761719 1098 1246.609375 1089.25 1266.820312 1080.53125 C 1255.738281 1125.851562 1156.28125 1158.339844 1161.558594 1015.441406 C 1164.921875 992.210938 1166.511719 988.238281 1175.550781 969.578125 L 1202.160156 972.480469 C 1197.339844 993.519531 1192.730469 1002.300781 1194.558594 1027.25 Z M 1053.371094 1031.019531 C 1050.878906 1057.320312 1049.21875 1059.460938 1024.820312 1052.761719 C 994.746094 1044.511719 996.003906 982.128906 1006.949219 963.519531 C 1023.941406 934.609375 1038.628906 958.609375 1041.089844 961.378906 C 1028.949219 964.210938 1024.421875 964.449219 1019.429688 975.910156 C 1014.421875 987.410156 1013.761719 1025.300781 1029.050781 1036.378906 C 1042.121094 1045.839844 1045.671875 1034.589844 1053.371094 1031.019531 Z M 1189.238281 933.480469 C 1225.519531 916.019531 1260.691406 918.128906 1284.949219 947.808594 C 1257.890625 964.03125 1196.441406 957.648438 1162.378906 953.691406 Z M 994.882812 987.710938 C 994.234375 1024.449219 998.992188 1022.519531 1008.261719 1049.570312 L 984.011719 1049.828125 C 976.484375 1026.019531 972.992188 1015.789062 973.675781 986.820312 C 976.863281 959.359375 987.472656 933.71875 1011.558594 929.238281 L 1022.25 940.941406 C 1004.070312 955.210938 998.21875 957.628906 994.882812 987.710938 Z M 1154.941406 1070.609375 C 1162.660156 1100.800781 1187.601562 1134.898438 1227.210938 1125.941406 C 1244.789062 1121.96875 1259.390625 1110.21875 1266.859375 1100.390625 C 1278.171875 1085.488281 1277.851562 1074.089844 1285.578125 1057.871094 C 1290.730469 1016.230469 1288.121094 1010.589844 1282.289062 972.140625 C 1304.121094 968.519531 1342.539062 943.148438 1350.160156 931.171875 C 1384.441406 934.28125 1410.648438 936.300781 1446.148438 937.441406 C 1447.988281 958.78125 1432.308594 986.601562 1420.078125 993.441406 C 1411.980469 1007.511719 1396.378906 1019.761719 1388.53125 1033.871094 C 1374.378906 1059.308594 1391.828125 1071.808594 1403.769531 1083.21875 C 1398.488281 1104.859375 1393.28125 1121.449219 1411.160156 1134 C 1428.460938 1146.128906 1447.191406 1144.648438 1463.449219 1133 C 1514.761719 1096.21875 1501.230469 1023.351562 1547.898438 947.351562 C 1552.621094 939.671875 1556.820312 933.898438 1562.160156 927.789062 C 1567.558594 921.628906 1573.25 914.210938 1577.859375 909.75 C 1613.101562 875.570312 1686.410156 875.21875 1686.949219 957.800781 C 1687.210938 998.269531 1676.238281 1034.269531 1659.359375 1063.578125 C 1638.519531 1099.75 1589.210938 1148.300781 1543.988281 1151.519531 C 1517.269531 1153.421875 1508.75 1140.121094 1491.160156 1138.800781 C 1493.730469 1150.839844 1494.578125 1142.28125 1498.089844 1154.019531 C 1490.648438 1162.628906 1486.890625 1172.96875 1479.308594 1182.609375 C 1464.609375 1201.320312 1428.53125 1242.890625 1406.21875 1249.460938 C 1372.570312 1259.371094 1366.25 1258.949219 1341.230469 1278.429688 C 1315.421875 1298.519531 1308.691406 1318.191406 1296.75 1326.371094 C 1288.101562 1341.269531 1282.878906 1347.53125 1261.449219 1350.660156 C 1218.359375 1356.941406 1243.589844 1355.011719 1217.859375 1362.5 C 1189.851562 1370.660156 1145.300781 1363.558594 1128.851562 1346.078125 L 1139.890625 1337.558594 C 1152.859375 1327.441406 1158.671875 1319.109375 1161.460938 1301.578125 C 1201.28125 1309.199219 1194.761719 1308.628906 1234.429688 1302.429688 C 1240.199219 1298.269531 1244.480469 1297.558594 1249.859375 1293.171875 C 1263.660156 1281.910156 1272.648438 1258.871094 1276.011719 1240.070312 C 1355.851562 1236.988281 1358.800781 1170.679688 1326.300781 1112.941406 C 1305.351562 1118.5 1272.871094 1179.578125 1144.910156 1177.390625 L 1146.089844 1165.238281 C 1131.808594 1166.988281 1147.109375 1160.449219 1131.898438 1184.839844 C 1127.730469 1191.53125 1123.210938 1197.171875 1119.050781 1203.328125 C 1092.390625 1242.871094 1037.519531 1265.25 985.589844 1257.820312 C 892.394531 1244.46875 881.289062 1136.980469 909.601562 1106.671875 C 921.476562 1068.96875 1012.210938 1059.390625 1058.140625 1074.558594 C 1085.53125 1083.601562 1086.171875 1090.46875 1100.761719 1096.109375 C 1092.96875 1080.339844 1070.261719 1067.648438 1054.558594 1061.558594 L 1059.148438 1037.03125 C 1060.070312 1016.171875 1054.21875 998.25 1054.640625 982.019531 C 1054.828125 974.878906 1056.820312 965.988281 1054.378906 955.390625 C 1052.640625 947.878906 1049.601562 940.878906 1047.910156 933.660156 L 1129.300781 960.730469 L 1127.230469 981.5 C 1142.488281 974.671875 1137.140625 962.488281 1157.011719 966.441406 C 1158.859375 976.488281 1143.648438 1023.710938 1154.941406 1070.609375 Z M 1540.53125 931.648438 C 1534.191406 947.269531 1522.628906 965.351562 1515.421875 984.859375 C 1502.539062 1019.699219 1489.921875 1077.148438 1474.710938 1098.421875 C 1468.488281 1107.109375 1443.699219 1133.398438 1423.671875 1119.46875 C 1414.828125 1111.148438 1417.710938 1098.089844 1422.96875 1088.121094 C 1426.410156 1084.570312 1435.78125 1087.910156 1448.660156 1074.789062 C 1403.820312 1090.128906 1395.839844 1041.191406 1423.441406 1015.769531 C 1454.519531 987.148438 1453.460938 967.609375 1465.230469 937.820312 Z M 947.707031 945.761719 C 947.710938 936.308594 946.3125 924.109375 949.84375 916.230469 C 965.027344 882.320312 991.996094 907.269531 997.960938 919.230469 C 979.277344 936.019531 969.902344 938.53125 965.230469 972.410156 C 960.964844 1003.351562 966.414062 1022.371094 973.128906 1049.941406 L 925.769531 1062.488281 C 931.371094 1046.460938 939.414062 1037.371094 951.316406 1031.078125 Z M 797.851562 891.511719 C 792.710938 872.738281 801.652344 863.589844 812.613281 855.941406 C 905.414062 791.238281 982.4375 775.878906 1098.199219 802.890625 C 1191.929688 824.769531 1242.480469 846.601562 1316.710938 895.640625 C 1325.539062 901.480469 1343.671875 910.378906 1331.960938 921.609375 C 1327.851562 925.550781 1307.078125 938.421875 1300.351562 941.269531 C 1296.871094 935.871094 1299.109375 939.640625 1296.628906 932.460938 C 1295.75 929.921875 1295.148438 927.550781 1294.308594 925.230469 C 1282.660156 892.941406 1258.261719 858.058594 1215.761719 870.960938 C 1165.761719 886.148438 1146.210938 933.078125 1133.949219 948.160156 C 1115.671875 946.550781 1094.171875 938.550781 1077.128906 932.648438 C 1043.910156 921.148438 1043.78125 923.261719 1034.410156 905.359375 C 1020.628906 879 994.996094 835.050781 959.511719 839.730469 C 946.738281 858.039062 942.070312 873.25 942.015625 898.730469 C 921.742188 898.328125 806.027344 894.371094 797.851562 891.511719 Z M 1662.210938 788.28125 C 1671.21875 811.289062 1659.769531 845.46875 1654.128906 868.28125 C 1618.789062 875.890625 1611.289062 871.300781 1584.171875 891.980469 C 1560.890625 909.730469 1552.480469 912.148438 1512.851562 915.019531 C 1484.308594 917.101562 1452.238281 917.378906 1423.371094 918.101562 C 1408.878906 918.46875 1367.171875 922.78125 1356.710938 913.589844 L 1345.828125 901.621094 C 1336.640625 899.179688 1331.5 892.53125 1323.429688 886.519531 C 1263.179688 841.679688 1221.308594 828.269531 1155.941406 801.671875 C 1115.429688 790.390625 1073.398438 778.550781 1028.371094 775.890625 C 998.679688 774.601562 976.035156 776.46875 947.269531 779.910156 C 940.679688 727.289062 924.980469 709.71875 935.140625 633.800781 C 947.671875 540.171875 991.722656 472.320312 1090.550781 458.628906 C 1139.320312 451.878906 1190.550781 460.679688 1233.191406 475.109375 C 1330.960938 508.199219 1368.050781 540.101562 1431.679688 607.058594 C 1469.789062 647.160156 1539.269531 759.171875 1553.28125 816.050781 C 1559.671875 806.53125 1555.480469 808.539062 1555.480469 808.449219 C 1555.609375 806.160156 1554.800781 802.78125 1554.289062 800.410156 C 1553.179688 795.320312 1551.761719 789.808594 1550.359375 784.929688 C 1547.710938 775.691406 1544.03125 765.191406 1541.101562 755.519531 C 1535.5 737 1522.53125 715.820312 1519.769531 700.070312 C 1557.550781 695.148438 1587.050781 693.960938 1618.640625 711.828125 C 1640.109375 723.96875 1661.058594 751.699219 1662.210938 788.28125 Z M 914.5 673.25 C 914.5 707.378906 914.886719 710.640625 925.011719 744.738281 C 928.4375 756.28125 935.964844 775.871094 936.203125 786.601562 C 897.671875 786.601562 860.191406 803.300781 829.066406 821.738281 C 814.257812 830.519531 797.464844 839.511719 784.945312 849.96875 C 777.84375 855.898438 755.335938 882.71875 755.335938 892.710938 C 755.335938 924.28125 844.15625 909.46875 863.839844 909.570312 L 926.558594 909.589844 C 939.242188 909.589844 933.796875 939.140625 933.792969 948.171875 C 933.789062 962.78125 932.691406 982.25 933.925781 996.28125 C 936.261719 1022.859375 940.464844 1010.710938 927.011719 1030.621094 C 922.898438 1036.699219 911.34375 1055.261719 909.675781 1061.519531 C 903.382812 1056.898438 902.40625 1051.851562 898.40625 1043.851562 C 894.519531 1036.070312 891.164062 1032.328125 890.382812 1022.929688 C 878.394531 1023.929688 875.292969 1033.238281 869.09375 1042.640625 C 851.921875 1068.691406 856.730469 1086.378906 861.414062 1114.601562 C 864.304688 1132.03125 871.261719 1143.03125 872.984375 1153.671875 C 878.296875 1186.550781 867.421875 1181.730469 902.078125 1225.859375 C 905.46875 1230.179688 909.140625 1235.089844 912.753906 1239.308594 C 918.011719 1245.429688 920.988281 1245.609375 925.546875 1250.628906 C 946.367188 1273.558594 925.144531 1321.96875 1023.019531 1321.96875 C 1030.550781 1321.96875 1036.980469 1317.550781 1042.308594 1314.730469 C 1065.328125 1349.109375 1084.511719 1334.261719 1113.390625 1347.351562 C 1122.679688 1351.558594 1127.410156 1361.421875 1143.53125 1367.851562 C 1188.230469 1385.710938 1191.820312 1378.628906 1235.238281 1375.019531 C 1218.128906 1410.679688 1225.121094 1416.628906 1188.398438 1439.121094 C 1070.351562 1511.410156 1128.699219 1450.230469 1069.398438 1464.738281 C 1052.859375 1468.789062 1039.460938 1478.53125 1025.429688 1485.949219 C 977.257812 1453.691406 942.691406 1440.78125 882.191406 1431.441406 C 852.425781 1426.851562 867.148438 1434.148438 847.359375 1418.039062 C 836.441406 1409.160156 828.972656 1404.871094 813.082031 1401.679688 C 753.609375 1389.730469 696.140625 1387.359375 642.054688 1411.261719 C 623.328125 1419.53125 590.238281 1432.539062 579.199219 1447.28125 C 564.789062 1466.519531 549.3125 1487.148438 560.269531 1517.019531 C 564.808594 1529.390625 570.941406 1538.929688 581.253906 1546.691406 C 616.097656 1572.929688 708.410156 1548.800781 736.042969 1534.179688 C 735.0625 1545.941406 722.3125 1549.808594 714.347656 1555.898438 C 686.351562 1577.300781 663.929688 1564.230469 600.601562 1574.789062 C 564.621094 1580.78125 502.121094 1609.710938 502.121094 1652.351562 C 502.121094 1682.160156 497.410156 1707.21875 530.101562 1718.421875 C 582.699219 1736.449219 579.710938 1727.910156 615.464844 1727.109375 C 612.816406 1758.941406 600.738281 1771.519531 619.742188 1802.421875 C 633.699219 1825.109375 660.304688 1820.519531 683.96875 1812.488281 C 696.4375 1808.261719 704.171875 1802.390625 716.75 1799.460938 C 716.75 1846.550781 740.773438 1852.511719 781.863281 1852.511719 C 802.902344 1852.511719 815.195312 1833.019531 832.507812 1828.390625 C 834.335938 1850.363281 856.695312 1850.097656 875.914062 1850.097656 C 930.910156 1850.097656 948.109375 1812.808594 974.847656 1809.160156 C 1001.96875 1805.46875 1034.050781 1793.109375 1044.71875 1792.21875 C 1044.71875 1832.628906 1051.890625 1861.957031 1069.628906 1895.128906 C 1074.421875 1904.078125 1083.289062 1913.359375 1085.71875 1922.445312 C 1074.421875 1939.316406 1054.910156 1947.648438 1049.550781 1970.679688 C 1001.871094 1970.679688 933.105469 1996.203125 912.789062 2036.492188 C 892.730469 2076.273438 899.707031 2119.046875 919.4375 2156.253906 C 926.285156 2169.15625 930.964844 2165.300781 927.566406 2186.335938 C 925.804688 2197.238281 928.847656 2211.957031 931.761719 2221.101562 C 940.027344 2247.070312 1027.808594 2269.710938 1047.140625 2269.710938 C 1087.171875 2269.710938 1138.050781 2262.667969 1171.601562 2254.308594 C 1204.980469 2245.992188 1240.878906 2227.285156 1271.398438 2211.824219 C 1353.789062 2170.101562 1317.539062 2196.128906 1385.519531 2186.070312 C 1407.511719 2182.8125 1422.550781 2178.527344 1441.820312 2172.4375 C 1454.890625 2168.304688 1457.589844 2168.792969 1460.378906 2154.824219 C 1461.96875 2146.867188 1461.929688 2131.949219 1461.929688 2120.195312 L 1452.371094 2117.488281 C 1454.929688 2107.855469 1472.371094 2094.933594 1461.800781 2043.148438 C 1459.488281 2031.859375 1455.421875 2031.476562 1447.460938 2026.144531 C 1461.96875 2004.472656 1464.339844 1994.015625 1464.339844 1965.855469 C 1464.339844 1949.71875 1457.21875 1944.398438 1448.050781 1936.324219 C 1438.160156 1927.617188 1427.359375 1922.519531 1417.550781 1913.765625 C 1402.050781 1899.925781 1388.769531 1878.953125 1377.519531 1862.15625 C 1454.710938 1844.175781 1417.71875 1844.996094 1490.03125 1879.875 C 1503.570312 1886.40625 1545.710938 1900.351562 1563.210938 1900.742188 C 1592.128906 2024.871094 1588.03125 2024.675781 1660.359375 2121.925781 C 1669.789062 2134.605469 1675.53125 2138.792969 1685.628906 2149.707031 C 1694.078125 2158.839844 1699.738281 2172.191406 1712.730469 2175.660156 C 1712.730469 2219.617188 1688.199219 2207.488281 1744.679688 2264.285156 C 1750.761719 2270.398438 1754.429688 2276.96875 1763.371094 2279.359375 C 1759.609375 2324.554688 1740.390625 2308.269531 1768.191406 2378.238281 C 1785.671875 2422.226562 1777.839844 2399.078125 1777.839844 2448.167969 C 1777.839844 2463.90625 1800.589844 2477.316406 1812.398438 2483.550781 C 1876.460938 2517.371094 1925.300781 2534.984375 1999.710938 2534.984375 C 2038.808594 2534.984375 2175.570312 2511.972656 2205.429688 2482.671875 C 2221.691406 2466.722656 2211.921875 2432.25 2211.921875 2411.996094 C 2206.191406 2408.152344 2209.410156 2409.078125 2202.28125 2407.171875 C 2202.878906 2380.238281 2209.351562 2356.300781 2205.351562 2326.929688 C 2200.789062 2293.507812 2207 2271.414062 2185.78125 2242.796875 C 2175.96875 2229.5625 2166.269531 2218.355469 2153.039062 2208.019531 C 2142.480469 2199.769531 2121.769531 2185.078125 2115.460938 2175.660156 C 2122.609375 2144.964844 2129.929688 2141.585938 2129.929688 2103.3125 C 2129.929688 2064.390625 2043.859375 2037.722656 2026.859375 2013.457031 L 2021.058594 2004.785156 C 2020.769531 2004.371094 2020.339844 2003.808594 2020.039062 2003.402344 L 1986.96875 1956.890625 C 1959.53125 1920.140625 1927.808594 1884.851562 1890.738281 1857.773438 C 1878.300781 1848.683594 1879.851562 1838.5625 1876.25 1824.03125 C 1873.160156 1811.53125 1869.511719 1799.640625 1866.089844 1785.960938 C 1858.269531 1754.691406 1849.488281 1722.480469 1838.351562 1693.019531 C 1828.429688 1666.78125 1847.671875 1636.398438 1829.019531 1569.820312 C 1826.378906 1560.398438 1824.421875 1560.160156 1823.660156 1551.058594 C 1828.449219 1554.578125 1826.660156 1554.03125 1829.859375 1556.921875 C 1850.511719 1575.609375 1894.261719 1578.621094 1905.398438 1548.390625 C 1908.171875 1540.859375 1909.449219 1536.769531 1911.070312 1527.539062 C 1918.378906 1485.738281 1925.339844 1526.949219 1956.300781 1526.949219 C 1969.050781 1526.949219 1975.238281 1526.410156 1985.238281 1519.710938 C 2002.988281 1529.109375 2017.238281 1538.070312 2036.53125 1530.039062 C 2051.960938 1523.621094 2043.820312 1521.929688 2058.570312 1530.660156 C 2069.039062 1536.851562 2083.308594 1539.011719 2096.171875 1539.011719 C 2108.898438 1539.011719 2116.308594 1525.859375 2126.429688 1526.320312 C 2135.160156 1526.71875 2162.308594 1540.988281 2189.269531 1523.589844 C 2198.238281 1517.808594 2198.761719 1510.53125 2209.511719 1507.660156 C 2209.511719 1465.890625 2207.140625 1449.269531 2186.050781 1427.421875 C 2169.789062 1410.589844 2143.320312 1390.058594 2117.871094 1389.488281 C 2116.871094 1377.480469 2106.578125 1354.179688 2100.398438 1346.671875 C 2088.839844 1332.609375 2032.429688 1301.320312 1997.28125 1300.238281 C 1961.691406 1299.148438 1976.101562 1297.308594 1958.75 1264.039062 C 1930.078125 1209.039062 1876.398438 1192.839844 1816.820312 1211.75 C 1800.171875 1217.03125 1798.898438 1207.269531 1776.269531 1195.71875 C 1745.019531 1179.78125 1704.28125 1177.269531 1666.910156 1177.269531 C 1653.519531 1177.269531 1652.609375 1179.679688 1640.378906 1179.679688 C 1648.570312 1164.210938 1646.121094 1160.171875 1633.839844 1147.640625 C 1627.289062 1140.941406 1628.289062 1138.949219 1616.269531 1138.691406 C 1622.609375 1129.210938 1625.628906 1129.511719 1633.730469 1122.390625 C 1640.25 1116.660156 1645.550781 1110.601562 1651.839844 1104.320312 C 1666.191406 1089.96875 1673.140625 1082.558594 1684.800781 1064.941406 C 1700.691406 1040.949219 1727.621094 935.519531 1697.609375 900.589844 C 1690.5 892.320312 1679.941406 878.660156 1669.320312 875.828125 C 1684.898438 846.371094 1691.019531 824.128906 1691.019531 779.359375 C 1691.019531 738.480469 1648.679688 684.550781 1606.679688 682.839844 C 1601.179688 682.621094 1595.410156 683.210938 1589.871094 682.761719 C 1580.398438 682 1583.03125 680.5 1572.851562 680.460938 C 1549.691406 680.359375 1531.710938 692.550781 1510.160156 692.550781 C 1506.710938 677.738281 1498.089844 663.761719 1490.988281 651.421875 C 1483.339844 638.128906 1475.011719 626.640625 1465.390625 614.320312 L 1446.871094 591.839844 C 1420.28125 563.441406 1395.609375 533.351562 1361.691406 513.039062 C 1326.480469 491.96875 1293.480469 473.441406 1256.140625 454.601562 C 1213.828125 433.25 1146.070312 427.269531 1095.371094 427.269531 C 1056.46875 427.269531 1005.871094 445.878906 980.160156 471.230469 C 953.246094 497.769531 936.175781 538.078125 924.421875 574.648438 C 916.226562 600.148438 914.5 639.738281 914.5 673.25 "/>
<path fill-rule="evenodd" fill="rgb(9.008789%, 16.992188%, 42.993164%)" fill-opacity="1" d="M 1832.21875 2190.007812 C 1836.710938 2167.96875 1854.839844 2152.910156 1866.011719 2140.859375 C 1889.679688 2115.328125 1954.941406 2098.136719 1988.480469 2107.34375 C 2007.671875 2112.609375 2033.351562 2121.40625 2040.808594 2139.933594 C 1992.878906 2136.125 1971.03125 2131.230469 1922.828125 2144.546875 C 1906.890625 2148.953125 1888.691406 2156.828125 1874.691406 2163.886719 C 1855.519531 2173.550781 1840.660156 2187.050781 1832.21875 2190.007812 Z M 1215.921875 1994.394531 C 1243.21875 2005.296875 1263.988281 2035.253906 1306.21875 2027.390625 C 1354.089844 2018.476562 1369.320312 1994.6875 1389.039062 1985.753906 C 1374.539062 2021.871094 1351.050781 2064.519531 1307.660156 2065.855469 C 1275.660156 2066.839844 1266.960938 2053.886719 1253.25 2039.457031 C 1244.238281 2029.980469 1220.070312 2003.605469 1215.921875 1994.394531 Z M 1355.800781 1809.101562 C 1350.789062 1816.140625 1324.660156 1829.191406 1315.738281 1834.160156 C 1278.28125 1855.046875 1216.019531 1896.429688 1176.320312 1870.40625 C 1135.460938 1843.625 1183.121094 1816.558594 1203.789062 1801.75 C 1217.839844 1791.699219 1229.238281 1784.699219 1242.738281 1775.621094 C 1253.921875 1768.089844 1270.28125 1760.039062 1280.160156 1751.269531 C 1284.53125 1752.671875 1346.078125 1799.890625 1355.800781 1809.101562 Z M 1881.589844 1880.433594 C 1888.671875 1909.894531 1876.171875 1943.546875 1860.070312 1958.839844 C 1838.890625 1978.953125 1808.738281 1970.765625 1780.410156 1960.902344 C 1709.648438 1936.261719 1706.050781 1920.617188 1671.800781 1864.535156 C 1665.070312 1853.507812 1659.308594 1842.859375 1652.789062 1830.480469 C 1639.769531 1805.75 1644.570312 1805.898438 1629.429688 1803.050781 C 1569.320312 1791.730469 1530.03125 1790.75 1472.578125 1755.050781 C 1455.53125 1744.460938 1426.128906 1722.570312 1422.691406 1701.351562 C 1405.738281 1715.78125 1371.601562 1709.101562 1353.878906 1700.039062 L 1302.761719 1666.070312 C 1284.058594 1676.898438 1266.308594 1691.109375 1247.980469 1703.648438 C 1237.699219 1710.691406 1230.21875 1715.109375 1219.859375 1721.359375 C 1182.371094 1744.019531 1200.300781 1725.628906 1181.820312 1753.289062 C 1168.488281 1773.238281 1165.871094 1777.449219 1147.441406 1786.441406 C 1114.03125 1802.730469 1102.449219 1788.949219 1085.71875 1773.46875 C 1078.179688 1777.351562 1073.269531 1778.25 1071.640625 1787.511719 C 1062.351562 1840.304688 1104.53125 1926.664062 1106.890625 1943.320312 C 1104.488281 1941.011719 1103.359375 1939.261719 1100.441406 1936.820312 C 1093.589844 1931.09375 1100.609375 1934.964844 1092.210938 1931.609375 C 1085.179688 1941.125 1074.648438 1952.953125 1070.5 1968.601562 C 1091.820312 1973.449219 1126.058594 1988.496094 1145.25 1998.023438 C 1170.398438 2010.515625 1213.03125 2046.714844 1234.261719 2065.738281 C 1262.050781 2090.644531 1330.730469 2070.40625 1358.609375 2057.863281 C 1382.859375 2046.957031 1404.160156 2032.820312 1423.269531 2018.867188 C 1437.261719 2008.65625 1441.058594 2006.828125 1441.308594 1982.738281 C 1441.761719 1938.242188 1415.519531 1934.859375 1400.429688 1918.824219 C 1389.398438 1907.101562 1378.570312 1888.097656 1367.621094 1874.339844 C 1357.761719 1861.96875 1346.238281 1872.210938 1312.109375 1879.464844 C 1320.449219 1859.191406 1380.539062 1844.652344 1407.910156 1834.691406 C 1400.378906 1828.621094 1381.648438 1807.640625 1378.25 1797.121094 C 1386.78125 1800.179688 1464.839844 1867.734375 1556.269531 1878.757812 C 1555.800781 1867.492188 1551.550781 1851.316406 1555.980469 1843.21875 C 1569.738281 1866.074219 1598.289062 1974.261719 1620.871094 2021.507812 C 1637.550781 2056.410156 1687.089844 2110.578125 1719.578125 2137.484375 C 1753.890625 2165.914062 1721.121094 2160.796875 1744.089844 2214.175781 C 1751.359375 2231.078125 1762.609375 2243.285156 1777.839844 2250.839844 L 1785.910156 2243.992188 C 1818.710938 2208.3125 1857.890625 2183.78125 1905.089844 2167.871094 C 1932.671875 2158.574219 1962.648438 2151.902344 1994.820312 2151.230469 C 2026.019531 2150.578125 2064.710938 2160.902344 2087.558594 2159.882812 C 2104.050781 2102.234375 2071.058594 2057.839844 2028.050781 2041.21875 C 1999.601562 2030.222656 2011.679688 2039.1875 1995.878906 2013.140625 C 1980.351562 1987.53125 1963.21875 1960.859375 1944.289062 1941.699219 C 1933.25 1930.519531 1925.558594 1920.355469 1913.800781 1909.484375 L 1881.589844 1880.433594 "/>
<path fill-rule="evenodd" fill="rgb(83.006287%, 18.992615%, 12.988281%)" fill-opacity="1" d="M 1331.839844 735.921875 C 1337.839844 739.789062 1337.929688 743.058594 1342.421875 751.738281 C 1346.011719 758.671875 1350.539062 764.109375 1347.640625 773.769531 C 1328.859375 778.46875 1331.148438 747.929688 1331.839844 735.921875 Z M 1373.511719 707.730469 C 1386.140625 710.210938 1386.738281 714.371094 1394.109375 721.789062 C 1398.171875 725.859375 1412.449219 738.539062 1404.539062 746.070312 C 1392.410156 757.628906 1378.320312 716.238281 1373.511719 707.730469 Z M 1397.558594 676.230469 C 1405.320312 674.328125 1443.5 680.410156 1442.230469 699.390625 C 1427 704.789062 1408.148438 686.691406 1397.558594 676.230469 Z M 1397.949219 633.558594 C 1412.328125 633.191406 1423.128906 630.289062 1431.058594 639.488281 C 1428.820312 650.800781 1425.230469 649.628906 1415.398438 645.160156 C 1403.640625 639.820312 1401.730469 639.789062 1397.949219 633.558594 Z M 1028.371094 775.890625 C 990.691406 768.910156 982.761719 788.820312 964.382812 751.148438 C 944.871094 711.160156 947.546875 600.570312 1059.128906 595.328125 C 1144.011719 591.328125 1207.648438 707.738281 1177.191406 776.789062 C 1172.269531 787.941406 1166.851562 799.109375 1155.941406 801.671875 C 1221.308594 828.269531 1263.179688 841.679688 1323.429688 886.519531 C 1331.5 892.53125 1336.640625 899.179688 1345.828125 901.621094 C 1447.628906 896.820312 1425.671875 906.828125 1535.570312 876.878906 C 1579.230469 864.988281 1654.261719 838.128906 1662.210938 788.28125 C 1661.058594 751.699219 1640.109375 723.96875 1618.640625 711.828125 C 1587.050781 693.960938 1557.550781 695.148438 1519.769531 700.070312 C 1522.53125 715.820312 1535.5 737 1541.101562 755.519531 C 1544.03125 765.191406 1547.710938 775.691406 1550.359375 784.929688 C 1551.761719 789.808594 1553.179688 795.320312 1554.289062 800.410156 C 1554.800781 802.78125 1555.609375 806.160156 1555.480469 808.449219 C 1555.480469 808.539062 1559.671875 806.53125 1553.28125 816.050781 C 1539.269531 759.171875 1469.789062 647.160156 1431.679688 607.058594 C 1368.050781 540.101562 1330.960938 508.199219 1233.191406 475.109375 C 1190.550781 460.679688 1139.320312 451.878906 1090.550781 458.628906 C 991.722656 472.320312 947.671875 540.171875 935.140625 633.800781 C 924.980469 709.71875 940.679688 727.289062 947.269531 779.910156 C 976.035156 776.46875 998.679688 774.601562 1028.371094 775.890625 "/>
<path fill-rule="evenodd" fill="rgb(14.988708%, 27.001953%, 68.943787%)" fill-opacity="1" d="M 1476.46875 1248.53125 C 1536.238281 1263.359375 1562.820312 1283.710938 1595.828125 1315.871094 C 1626.269531 1345.53125 1659.378906 1378.910156 1654.019531 1446.789062 C 1646.050781 1547.769531 1551.441406 1609.488281 1452.441406 1623.078125 C 1459 1656.039062 1446.878906 1689.929688 1422.691406 1701.351562 C 1426.128906 1722.570312 1455.53125 1744.460938 1472.578125 1755.050781 C 1530.03125 1790.75 1569.320312 1791.730469 1629.429688 1803.050781 C 1644.570312 1805.898438 1639.769531 1805.75 1652.789062 1830.480469 C 1659.308594 1842.859375 1665.070312 1853.507812 1671.800781 1864.535156 C 1706.050781 1920.617188 1709.648438 1936.261719 1780.410156 1960.902344 C 1808.738281 1970.765625 1838.890625 1978.953125 1860.070312 1958.839844 C 1876.171875 1943.546875 1888.671875 1909.894531 1881.589844 1880.433594 C 1861.179688 1860.222656 1866.21875 1881.589844 1855.699219 1842.132812 C 1850.859375 1824 1846.699219 1806.359375 1842.171875 1788.128906 L 1812.839844 1682.640625 C 1808.179688 1656.800781 1842.339844 1565.660156 1758.769531 1476.109375 C 1753.210938 1470.148438 1749.070312 1465.78125 1741.21875 1459.828125 C 1713.351562 1438.710938 1728.058594 1465.199219 1692.988281 1406.839844 C 1676.058594 1378.671875 1657.46875 1349.109375 1638.820312 1325.929688 C 1617.289062 1299.160156 1599.660156 1279.28125 1571 1258.699219 C 1556.289062 1248.140625 1504.710938 1212.148438 1482.28125 1213.089844 C 1475.121094 1227 1475.851562 1231.828125 1476.46875 1248.53125 "/>
<path fill-rule="evenodd" fill="rgb(100%, 99.021912%, 99.021912%)" fill-opacity="1" d="M 1035.191406 1621.761719 C 1006.859375 1631.550781 996.039062 1585.5 1044.78125 1583.898438 C 1045.089844 1597.761719 1046.039062 1614.078125 1035.191406 1621.761719 Z M 1126.929688 1619.480469 C 1124.148438 1616.878906 1125.519531 1619.179688 1122.949219 1615.109375 C 1119.539062 1609.699219 1106.878906 1566.351562 1084.558594 1547.078125 C 1102.019531 1549.410156 1124.898438 1588.339844 1126.929688 1619.480469 Z M 1012.601562 1541.421875 C 1000.628906 1558.171875 958.546875 1558.949219 954.460938 1537.941406 C 950.144531 1515.78125 1005.308594 1534.039062 1012.601562 1541.421875 Z M 953.226562 1483.390625 C 960.117188 1487.441406 961.046875 1488.328125 963.191406 1493.019531 C 945.515625 1495.730469 911.429688 1499.441406 911.609375 1475.441406 C 921.285156 1468.03125 942.800781 1477.261719 953.226562 1483.390625 Z M 762.984375 1508.429688 C 780.699219 1510.171875 786.746094 1507.441406 802.949219 1515.460938 C 815.757812 1521.789062 818.722656 1530.410156 831.3125 1530.640625 L 850.601562 1530.351562 C 846.863281 1533.710938 795.144531 1555.75 778.234375 1564.308594 C 734.382812 1586.511719 688.660156 1624.140625 662.652344 1663.359375 C 651.859375 1679.640625 631.371094 1719.570312 635.5625 1743.789062 C 639.867188 1755.199219 635.425781 1717.71875 667.445312 1694.628906 C 691.804688 1677.058594 718.285156 1691.929688 733.632812 1703.210938 C 751.828125 1696.019531 764.945312 1677.46875 785.175781 1671.25 C 794.550781 1665.378906 847.230469 1609.058594 887.316406 1595.359375 C 885.261719 1602.519531 835.910156 1637.398438 815.265625 1661.648438 C 803.722656 1675.21875 760.441406 1722.449219 758.8125 1744.25 C 762.253906 1745.378906 776.484375 1730.921875 786.214844 1726.640625 C 798.40625 1721.28125 814.511719 1717.921875 829.554688 1720.671875 C 843.777344 1723.261719 854.035156 1729.851562 857.265625 1743.828125 C 858.851562 1750.691406 859.339844 1757.941406 857.933594 1764.570312 C 857.183594 1768.089844 855.527344 1771.179688 854.785156 1773.890625 C 854.1875 1776.089844 853.828125 1776.410156 853.941406 1778.800781 L 854.761719 1781.789062 C 854.832031 1782.070312 855.109375 1782.800781 855.425781 1783.21875 C 893.980469 1750.539062 947.261719 1671.128906 963.257812 1659.898438 C 959.144531 1688.351562 901.6875 1752.230469 892.613281 1767.179688 C 911.671875 1765.519531 917.910156 1760.238281 938.609375 1765.859375 C 945.648438 1767.761719 951.214844 1769.921875 957.203125 1773.628906 C 966.210938 1779.199219 965.46875 1782.738281 975.421875 1785.339844 C 983.28125 1779.960938 989.222656 1773.289062 992.960938 1765.179688 C 998.953125 1760.011719 1024.210938 1751.378906 1033.140625 1746.878906 C 1045.988281 1740.390625 1060.730469 1732.070312 1070.890625 1724.328125 C 1109.75 1694.671875 1118.371094 1668.929688 1128.03125 1663.019531 L 1126.730469 1659.878906 C 1132.25 1652.351562 1125.441406 1658.601562 1132.21875 1656.128906 C 1139.871094 1653.339844 1142.039062 1657.238281 1152.578125 1654.320312 C 1166.769531 1650.398438 1185.210938 1630.148438 1183.550781 1602.269531 C 1184.820312 1565.410156 1138.101562 1502.660156 1098.210938 1490.519531 C 1070.25 1482 1064.550781 1491.320312 1046.570312 1501.828125 C 1051.121094 1510.859375 1057.75 1513.808594 1058.621094 1523.621094 C 1051.808594 1520.980469 1032.570312 1506.800781 1024.21875 1501.621094 C 983.84375 1476.558594 945.230469 1459.78125 895.65625 1451.78125 C 861.640625 1446.289062 877.316406 1457.738281 851.949219 1437.519531 C 787.023438 1385.789062 685.933594 1403.011719 625.675781 1440.699219 C 608.617188 1451.371094 571.363281 1480.769531 583.746094 1512.871094 C 599.574219 1553.898438 679.203125 1542.789062 719.578125 1527.351562 C 734.363281 1521.699219 748.140625 1512.539062 762.984375 1508.429688 "/>
<path fill-rule="evenodd" fill="rgb(92.96875%, 75%, 59.959412%)" fill-opacity="1" d="M 1599.820312 986.671875 C 1645.449219 997.140625 1603.871094 1068.691406 1572.070312 1076.289062 C 1576.949219 1068.460938 1580.199219 1066.808594 1584.878906 1061.488281 C 1588.738281 1057.109375 1592.011719 1051.199219 1595.089844 1045.140625 C 1601.308594 1032.921875 1606.640625 1020.230469 1605.191406 1002.660156 C 1581.609375 998.71875 1570.78125 1006.859375 1553.808594 1015.480469 C 1548.851562 1024.589844 1541.210938 1033.171875 1535.011719 1045.429688 C 1526.261719 1062.710938 1528.859375 1070.511719 1519.800781 1075.261719 C 1501.550781 1049.730469 1545.96875 975.21875 1556.949219 963.628906 C 1597.960938 920.339844 1647.949219 925.039062 1651.351562 957 C 1642.390625 967.621094 1605.058594 968.941406 1599.820312 986.671875 Z M 1420.078125 993.441406 C 1418.261719 987.800781 1425.160156 992.601562 1412.699219 987.878906 L 1378.851562 978.601562 C 1367.738281 997.75 1315.769531 1045.660156 1285.578125 1057.871094 C 1277.851562 1074.089844 1278.171875 1085.488281 1266.859375 1100.390625 C 1259.390625 1110.21875 1244.789062 1121.96875 1227.210938 1125.941406 C 1187.601562 1134.898438 1162.660156 1100.800781 1154.941406 1070.609375 C 1150.238281 1069.109375 1071.039062 1010.628906 1059.148438 1037.03125 L 1054.558594 1061.558594 C 1070.261719 1067.648438 1092.96875 1080.339844 1100.761719 1096.109375 C 1086.171875 1090.46875 1085.53125 1083.601562 1058.140625 1074.558594 C 1012.210938 1059.390625 921.476562 1068.96875 909.601562 1106.671875 C 899.472656 1165.019531 941.007812 1207.101562 998.90625 1213.148438 C 1051.148438 1218.601562 1089.988281 1197.910156 1126.808594 1167.671875 C 1133.878906 1161.871094 1132.460938 1159.71875 1138.78125 1154.421875 C 1140.710938 1157.160156 1144.488281 1162.890625 1146.089844 1165.238281 L 1144.910156 1177.390625 C 1272.871094 1179.578125 1305.351562 1118.5 1326.300781 1112.941406 C 1358.800781 1170.679688 1355.851562 1236.988281 1276.011719 1240.070312 C 1272.648438 1258.871094 1263.660156 1281.910156 1249.859375 1293.171875 C 1244.480469 1297.558594 1240.199219 1298.269531 1234.429688 1302.429688 L 1223.789062 1311.011719 C 1219.980469 1314.410156 1222.828125 1311.050781 1219.761719 1315.308594 C 1230.660156 1317.96875 1241.121094 1323.238281 1253.980469 1325.238281 C 1268.691406 1327.53125 1282.371094 1325.441406 1296.75 1326.371094 C 1308.691406 1318.191406 1315.421875 1298.519531 1341.230469 1278.429688 C 1366.25 1258.949219 1372.570312 1259.371094 1406.21875 1249.460938 C 1428.53125 1242.890625 1464.609375 1201.320312 1479.308594 1182.609375 C 1486.890625 1172.96875 1490.648438 1162.628906 1498.089844 1154.019531 C 1494.578125 1142.28125 1493.730469 1150.839844 1491.160156 1138.800781 C 1508.75 1140.121094 1517.269531 1153.421875 1543.988281 1151.519531 C 1589.210938 1148.300781 1638.519531 1099.75 1659.359375 1063.578125 C 1676.238281 1034.269531 1687.210938 998.269531 1686.949219 957.800781 C 1686.410156 875.21875 1613.101562 875.570312 1577.859375 909.75 C 1573.25 914.210938 1567.558594 921.628906 1562.160156 927.789062 C 1556.820312 933.898438 1552.621094 939.671875 1547.898438 947.351562 C 1501.230469 1023.351562 1514.761719 1096.21875 1463.449219 1133 C 1447.191406 1144.648438 1428.460938 1146.128906 1411.160156 1134 C 1393.28125 1121.449219 1398.488281 1104.859375 1403.769531 1083.21875 C 1391.828125 1071.808594 1374.378906 1059.308594 1388.53125 1033.871094 C 1396.378906 1019.761719 1411.980469 1007.511719 1420.078125 993.441406 "/>
<path fill-rule="evenodd" fill="rgb(83.006287%, 18.992615%, 12.988281%)" fill-opacity="1" d="M 1419.378906 1380.148438 C 1428.53125 1378.800781 1437.53125 1383.710938 1439.128906 1388.25 C 1442.570312 1398.019531 1438.25 1394.210938 1437.929688 1394.890625 C 1428.480469 1397.019531 1423.609375 1385.28125 1419.378906 1380.148438 Z M 1462.28125 1348.140625 C 1454.230469 1344.46875 1448.261719 1344.769531 1443.421875 1339.421875 C 1444.230469 1338.261719 1451.109375 1336.03125 1454.699219 1335.839844 C 1459.339844 1335.589844 1461.570312 1336.210938 1465.601562 1337.550781 C 1474.429688 1340.480469 1477.988281 1341.828125 1480.351562 1348.488281 C 1473.328125 1356.300781 1471.808594 1352.46875 1462.28125 1348.140625 Z M 1448.761719 1309.898438 C 1452.460938 1299.628906 1465.378906 1290.859375 1476.191406 1297.851562 C 1475.078125 1306.160156 1477.328125 1303.519531 1465.660156 1306.359375 C 1459.050781 1307.96875 1455.429688 1308.898438 1448.761719 1309.898438 Z M 1196.808594 1595.761719 C 1226.121094 1595.570312 1344.28125 1552.570312 1368.078125 1539.25 C 1435.851562 1501.289062 1436.210938 1498.160156 1485.300781 1453.898438 C 1491.410156 1448.390625 1493.578125 1443.539062 1505.328125 1444.460938 C 1518.460938 1460.160156 1506.851562 1504.53125 1502.761719 1526.628906 C 1500.449219 1539.140625 1492.53125 1557.21875 1495.921875 1569.730469 C 1498.570312 1579.511719 1511.871094 1590.730469 1524.371094 1591.730469 C 1582.828125 1578.25 1658.109375 1497.46875 1648.300781 1418.339844 C 1637.789062 1333.550781 1488.050781 1217.890625 1376.800781 1277.828125 C 1345.421875 1294.730469 1324.601562 1323.789062 1302.878906 1353.421875 C 1281.019531 1383.25 1257.078125 1408.488281 1232.871094 1432.96875 C 1220.480469 1445.5 1205.039062 1453.230469 1187.429688 1462.21875 C 1176.621094 1467.738281 1146.589844 1481.761719 1137.929688 1488.359375 C 1140.398438 1493.410156 1137.898438 1489.839844 1142.121094 1494.640625 C 1171.730469 1528.351562 1183.878906 1546.441406 1196.808594 1595.761719 "/>
<path fill-rule="evenodd" fill="rgb(59.959412%, 40.989685%, 19.993591%)" fill-opacity="1" d="M 1876.699219 2197.351562 C 1793.609375 2328.734375 1950.398438 2408.628906 2099.171875 2366.695312 C 2109.019531 2363.921875 2119.058594 2360.480469 2127.730469 2356.785156 C 2149.539062 2347.503906 2183.609375 2323.09375 2179.851562 2294.117188 C 2178.378906 2271.683594 2146.160156 2230.886719 2135.441406 2220.800781 C 2085.859375 2174.136719 2030.28125 2159.925781 1959.851562 2167.453125 C 1936.628906 2169.933594 1885.308594 2183.710938 1876.699219 2197.351562 "/>
<path fill-rule="evenodd" fill="rgb(45.996094%, 31.005859%, 11.009216%)" fill-opacity="1" d="M 2179.851562 2294.117188 C 2183.609375 2323.09375 2149.539062 2347.503906 2127.730469 2356.785156 C 2119.058594 2360.480469 2109.019531 2363.921875 2099.171875 2366.695312 C 1950.398438 2408.628906 1793.609375 2328.734375 1876.699219 2197.351562 C 1852.808594 2203.339844 1820.511719 2236.769531 1809.808594 2253.480469 C 1793.820312 2278.449219 1785.578125 2312.546875 1789.171875 2348.058594 C 1793.039062 2386.40625 1804.371094 2402.09375 1833.429688 2421.527344 C 1906.871094 2470.648438 2035.371094 2483.136719 2122.410156 2452.851562 C 2149.621094 2443.382812 2183.121094 2429.554688 2188.53125 2401.050781 C 2193.359375 2375.59375 2194.800781 2311.703125 2179.851562 2294.117188 "/>
<path fill-rule="evenodd" fill="rgb(83.006287%, 18.992615%, 12.988281%)" fill-opacity="1" d="M 797.851562 891.511719 C 806.027344 894.371094 921.742188 898.328125 942.015625 898.730469 C 942.070312 873.25 946.738281 858.039062 959.511719 839.730469 C 994.996094 835.050781 1020.628906 879 1034.410156 905.359375 C 1043.78125 923.261719 1043.910156 921.148438 1077.128906 932.648438 C 1094.171875 938.550781 1115.671875 946.550781 1133.949219 948.160156 C 1146.210938 933.078125 1165.761719 886.148438 1215.761719 870.960938 C 1258.261719 858.058594 1282.660156 892.941406 1294.308594 925.230469 C 1295.148438 927.550781 1295.75 929.921875 1296.628906 932.460938 C 1299.109375 939.640625 1296.871094 935.871094 1300.351562 941.269531 C 1307.078125 938.421875 1327.851562 925.550781 1331.960938 921.609375 C 1343.671875 910.378906 1325.539062 901.480469 1316.710938 895.640625 C 1242.480469 846.601562 1191.929688 824.769531 1098.199219 802.890625 C 982.4375 775.878906 905.414062 791.238281 812.613281 855.941406 C 801.652344 863.589844 792.710938 872.738281 797.851562 891.511719 "/>
<path fill-rule="evenodd" fill="rgb(65.039062%, 75%, 80.076599%)" fill-opacity="1" d="M 1826.28125 1401.230469 C 1785.160156 1415.75 1768.75 1404.351562 1736.839844 1391.058594 C 1737.171875 1416.5 1739.171875 1420.988281 1753.640625 1435.378906 C 1779.691406 1461.289062 1799.671875 1468.648438 1843.050781 1466.378906 C 1868.628906 1465.039062 1874.648438 1459.691406 1894.390625 1453.101562 C 1880.609375 1479.78125 1826.871094 1481.761719 1793.410156 1478.140625 C 1797.121094 1486.199219 1799.171875 1487.628906 1803.339844 1494.238281 C 1807.691406 1501.128906 1808.339844 1505.578125 1814.679688 1509.410156 C 1826.53125 1516.570312 1845.628906 1515.441406 1859.449219 1512.171875 C 1893.488281 1504.109375 1905.71875 1492.53125 1931.910156 1478.210938 C 1922.921875 1466 1907.511719 1459.769531 1903.199219 1441.710938 C 1925.871094 1448.929688 1940.398438 1480.148438 2009.351562 1479.238281 C 2070.148438 1478.441406 2079 1460.75 2114.660156 1443.550781 C 2112.011719 1464.871094 2093.28125 1460.769531 2084.269531 1473.890625 C 2108.089844 1532.230469 2237.800781 1546.609375 2185.101562 1450.101562 C 2175.949219 1433.328125 2151.921875 1414.03125 2133.828125 1404.828125 C 2117.109375 1396.320312 2111.859375 1401.03125 2106.480469 1384.171875 C 2092.328125 1387.53125 2084.171875 1406.398438 2038.851562 1389.019531 C 1998.441406 1373.53125 1980.351562 1379.871094 1968.921875 1372.308594 L 1964.171875 1372.511719 C 1932.621094 1374.398438 1918.390625 1391.121094 1898.941406 1404.480469 C 1882.339844 1415.878906 1834.089844 1419.851562 1826.28125 1401.230469 "/>
<path fill-rule="evenodd" fill="rgb(59.959412%, 40.989685%, 19.993591%)" fill-opacity="1" d="M 1346.078125 2138.800781 C 1375.699219 2130.011719 1391.53125 2113.898438 1391.929688 2078.734375 C 1366.339844 2082.34375 1340.738281 2092.40625 1314.261719 2092.121094 C 1287.710938 2087.578125 1263.890625 2098.839844 1238.960938 2085.160156 C 1228.960938 2079.675781 1210.71875 2059.90625 1191.238281 2046.023438 C 1162.421875 2025.488281 1121.929688 1996.164062 1076.019531 1989.574219 C 1068.800781 1994.464844 1055 1996.941406 1045.949219 2000.808594 C 1019.191406 2012.222656 991.277344 2036.417969 987.835938 2070.144531 C 977.394531 2172.449219 1186.890625 2147.378906 1260.910156 2109.519531 C 1280.378906 2099.566406 1278.46875 2110.5625 1309.421875 2132.863281 C 1329.078125 2147.027344 1327.898438 2134.476562 1346.078125 2138.800781 "/>
<path fill-rule="evenodd" fill="rgb(45.996094%, 31.005859%, 11.009216%)" fill-opacity="1" d="M 1346.078125 2138.800781 C 1327.898438 2134.476562 1329.078125 2147.027344 1309.421875 2132.863281 C 1278.46875 2110.5625 1280.378906 2099.566406 1260.910156 2109.519531 C 1186.890625 2147.378906 977.394531 2172.449219 987.835938 2070.144531 C 991.277344 2036.417969 1019.191406 2012.222656 1045.949219 2000.808594 C 1055 1996.941406 1068.800781 1994.464844 1076.019531 1989.574219 C 1048.820312 1978.785156 1007.171875 1990.246094 984.863281 2002.429688 C 926.308594 2034.414062 910.328125 2106.257812 934.824219 2152.878906 C 945.410156 2173.035156 970.371094 2195.214844 995.351562 2203.355469 C 1063.710938 2225.621094 1116.949219 2221.054688 1181.429688 2196.6875 C 1244.558594 2172.828125 1255.390625 2161.933594 1295.539062 2144.417969 C 1309.238281 2138.441406 1331.738281 2145.378906 1346.078125 2138.800781 "/>
<path fill-rule="evenodd" fill="rgb(17.993164%, 15.989685%, 12.988281%)" fill-opacity="1" d="M 1143.601562 1184.988281 C 1131.261719 1197.78125 1124.601562 1234.140625 1073.921875 1257.011719 C 1035.21875 1274.46875 998.339844 1279.628906 952.078125 1268.75 C 958.445312 1299.558594 989.75 1313.148438 1015.160156 1311.261719 C 1017.339844 1311.089844 1027.800781 1309.261719 1029 1308.75 C 1037.898438 1305.011719 1031.320312 1308.410156 1033.570312 1305.128906 L 1035.078125 1300.539062 C 1047.199219 1311.910156 1074.148438 1333.148438 1100.191406 1333.308594 C 1136.398438 1333.539062 1139 1311.851562 1153.238281 1288.070312 C 1179.320312 1290.808594 1237.980469 1307.929688 1262.960938 1255.609375 C 1268.199219 1244.628906 1268.628906 1224.191406 1273.890625 1213.519531 C 1274.609375 1216.488281 1274.828125 1219.191406 1275.300781 1221.171875 L 1277.800781 1229.378906 C 1277.988281 1229.910156 1278.28125 1230.769531 1278.648438 1231.398438 C 1334.269531 1225.160156 1338.320312 1182.988281 1323.289062 1135.171875 C 1312.390625 1138.761719 1297.488281 1151.371094 1285.921875 1157.96875 C 1244.558594 1181.570312 1191.308594 1189.679688 1143.601562 1184.988281 "/>
<path fill-rule="evenodd" fill="rgb(46.99707%, 10.009766%, 7.006836%)" fill-opacity="1" d="M 1196.808594 1595.761719 C 1208 1641.039062 1204.128906 1653.339844 1201.050781 1699.328125 C 1260.601562 1685.269531 1348.648438 1609.121094 1389.871094 1570.671875 C 1401.851562 1559.5 1410.621094 1548.078125 1421.910156 1537.53125 C 1438.621094 1521.929688 1465.808594 1491.378906 1477.699219 1467.839844 C 1477.800781 1492.039062 1447.570312 1530.339844 1435.371094 1541.089844 C 1435.171875 1562.210938 1442.851562 1588.011719 1446.488281 1607.871094 C 1468.871094 1606.53125 1509.378906 1602.960938 1524.371094 1591.730469 C 1511.871094 1590.730469 1498.570312 1579.511719 1495.921875 1569.730469 C 1492.53125 1557.21875 1500.449219 1539.140625 1502.761719 1526.628906 C 1506.851562 1504.53125 1518.460938 1460.160156 1505.328125 1444.460938 C 1493.578125 1443.539062 1491.410156 1448.390625 1485.300781 1453.898438 C 1436.210938 1498.160156 1435.851562 1501.289062 1368.078125 1539.25 C 1344.28125 1552.570312 1226.121094 1595.570312 1196.808594 1595.761719 "/>
<path fill-rule="evenodd" fill="rgb(100%, 99.021912%, 99.021912%)" fill-opacity="1" d="M 1039.898438 723.628906 C 1029.53125 710.089844 1025.449219 695.96875 1016.121094 683.238281 C 1008.71875 707.738281 1007.320312 743.339844 1004.230469 769.921875 C 997.726562 765.988281 981.539062 747.960938 975.164062 740.320312 C 963.519531 726.378906 970.921875 720.429688 978.269531 700.878906 L 1008.910156 622.898438 C 1012.351562 617.339844 1009.96875 620.339844 1014.140625 616.691406 C 1020.488281 633.421875 1032 654.730469 1042.308594 670.851562 C 1055.171875 665.269531 1083.71875 627.898438 1100.191406 615.730469 L 1162.199219 752.53125 L 1109.78125 781.800781 L 1082.039062 678.710938 C 1068.839844 688.441406 1057.199219 707.039062 1046.519531 718.429688 C 1042.050781 723.210938 1045.261719 721 1039.898438 723.628906 Z M 1028.371094 775.890625 C 1073.398438 778.550781 1115.429688 790.390625 1155.941406 801.671875 C 1166.851562 799.109375 1172.269531 787.941406 1177.191406 776.789062 C 1207.648438 707.738281 1144.011719 591.328125 1059.128906 595.328125 C 947.546875 600.570312 944.871094 711.160156 964.382812 751.148438 C 982.761719 788.820312 990.691406 768.910156 1028.371094 775.890625 "/>
<path fill-rule="evenodd" fill="rgb(46.99707%, 10.009766%, 7.006836%)" fill-opacity="1" d="M 1656.308594 1306.449219 L 1688.609375 1350.839844 C 1703.78125 1350.710938 1727.351562 1341.320312 1740.710938 1350.898438 L 1721.429688 1357.5 C 1737.660156 1385.898438 1785.160156 1406.988281 1829.558594 1390.640625 C 1880.941406 1371.71875 1875.089844 1298.980469 1862.441406 1282.820312 C 1857.648438 1287.710938 1862.25 1286.03125 1855.660156 1283.019531 C 1852.460938 1281.558594 1852.429688 1280.609375 1850.078125 1278.800781 C 1831.601562 1264.53125 1773.511719 1224.210938 1761.160156 1254.601562 C 1735.238281 1318.378906 1704.058594 1304.21875 1656.308594 1306.449219 "/>
<path fill-rule="evenodd" fill="rgb(83.006287%, 18.992615%, 12.988281%)" fill-opacity="1" d="M 1656.308594 1306.449219 C 1704.058594 1304.21875 1735.238281 1318.378906 1761.160156 1254.601562 C 1773.511719 1224.210938 1831.601562 1264.53125 1850.078125 1278.800781 C 1852.429688 1280.609375 1852.460938 1281.558594 1855.660156 1283.019531 C 1862.25 1286.03125 1857.648438 1287.710938 1862.441406 1282.820312 C 1844.699219 1246.480469 1770.5 1205.058594 1729.898438 1193.859375 C 1711.570312 1188.808594 1644.429688 1186.488281 1629.71875 1195.589844 C 1620.230469 1201.460938 1621.839844 1207 1595.75 1217.019531 C 1583.390625 1221.761719 1562.601562 1224.21875 1553.21875 1229.910156 C 1619.820312 1261.910156 1648.289062 1303.109375 1656.308594 1306.449219 "/>
<path fill-rule="evenodd" fill="rgb(65.039062%, 75%, 80.076599%)" fill-opacity="1" d="M 758.578125 1555.890625 C 735.972656 1539.148438 719.4375 1577.300781 692.714844 1578.699219 C 640.527344 1581.441406 579.820312 1585.050781 541.878906 1624.570312 C 526.757812 1640.308594 516.390625 1678.421875 536.574219 1697.488281 C 549.210938 1709.441406 595.472656 1720.660156 613.664062 1708.351562 C 616.585938 1706.378906 634.664062 1664.46875 649.640625 1645.5 C 670.433594 1619.160156 719.902344 1581.878906 750.15625 1562.859375 L 758.578125 1555.890625 "/>
<path fill-rule="evenodd" fill="rgb(100%, 99.021912%, 99.021912%)" fill-opacity="1" d="M 1826.28125 1401.230469 C 1834.089844 1419.851562 1882.339844 1415.878906 1898.941406 1404.480469 C 1918.390625 1391.121094 1932.621094 1374.398438 1964.171875 1372.511719 C 1963.941406 1310.960938 1970.859375 1302.890625 1936.851562 1259.398438 C 1916.519531 1233.398438 1877.101562 1218.601562 1829.269531 1226.429688 C 1834.949219 1231.519531 1858.179688 1254.898438 1862.519531 1261.421875 C 1894.351562 1309.289062 1882.371094 1384.46875 1826.28125 1401.230469 "/>
<path fill-rule="evenodd" fill="rgb(85.9375%, 66.014099%, 37.988281%)" fill-opacity="1" d="M 1983.21875 2478.671875 C 1944.871094 2475.695312 1912.320312 2467.414062 1877.878906 2456.59375 C 1842.5 2445.472656 1797.019531 2416.246094 1793.570312 2415.585938 C 1790.800781 2466.027344 1818.480469 2478.269531 1862.441406 2491.542969 C 1955.308594 2519.578125 2081.761719 2528.960938 2168.660156 2479.65625 C 2196.398438 2463.917969 2195.78125 2459.207031 2193.039062 2431.242188 C 2178.269531 2437.9375 2171.851562 2447.632812 2151.511719 2455.253906 C 2096.828125 2475.734375 2043.078125 2483.316406 1983.21875 2478.671875 "/>
<path fill-rule="evenodd" fill="rgb(83.006287%, 18.992615%, 12.988281%)" fill-opacity="1" d="M 1039.898438 723.628906 C 1045.261719 721 1042.050781 723.210938 1046.519531 718.429688 C 1057.199219 707.039062 1068.839844 688.441406 1082.039062 678.710938 L 1109.78125 781.800781 L 1162.199219 752.53125 L 1100.191406 615.730469 C 1083.71875 627.898438 1055.171875 665.269531 1042.308594 670.851562 C 1032 654.730469 1020.488281 633.421875 1014.140625 616.691406 C 1009.96875 620.339844 1012.351562 617.339844 1008.910156 622.898438 L 978.269531 700.878906 C 970.921875 720.429688 963.519531 726.378906 975.164062 740.320312 C 981.539062 747.960938 997.726562 765.988281 1004.230469 769.921875 C 1007.320312 743.339844 1008.71875 707.738281 1016.121094 683.238281 C 1025.449219 695.96875 1029.53125 710.089844 1039.898438 723.628906 "/>
<path fill-rule="evenodd" fill="rgb(14.988708%, 27.001953%, 68.943787%)" fill-opacity="1" d="M 1355.800781 1809.101562 C 1346.078125 1799.890625 1284.53125 1752.671875 1280.160156 1751.269531 C 1270.28125 1760.039062 1253.921875 1768.089844 1242.738281 1775.621094 C 1229.238281 1784.699219 1217.839844 1791.699219 1203.789062 1801.75 C 1183.121094 1816.558594 1135.460938 1843.625 1176.320312 1870.40625 C 1216.019531 1896.429688 1278.28125 1855.046875 1315.738281 1834.160156 C 1324.660156 1829.191406 1350.789062 1816.140625 1355.800781 1809.101562 "/>
<path fill-rule="evenodd" fill="rgb(41.992188%, 25%, 7.006836%)" fill-opacity="1" d="M 1465.230469 937.820312 C 1453.460938 967.609375 1454.519531 987.148438 1423.441406 1015.769531 C 1395.839844 1041.191406 1403.820312 1090.128906 1448.660156 1074.789062 C 1435.78125 1087.910156 1426.410156 1084.570312 1422.96875 1088.121094 C 1417.710938 1098.089844 1414.828125 1111.148438 1423.671875 1119.46875 C 1443.699219 1133.398438 1468.488281 1107.109375 1474.710938 1098.421875 C 1489.921875 1077.148438 1502.539062 1019.699219 1515.421875 984.859375 C 1522.628906 965.351562 1534.191406 947.269531 1540.53125 931.648438 L 1465.230469 937.820312 "/>
<path fill-rule="evenodd" fill="rgb(85.9375%, 66.014099%, 37.988281%)" fill-opacity="1" d="M 944.425781 2189.753906 C 948.679688 2221.640625 958.039062 2227.84375 984.460938 2238.355469 C 1047.660156 2263.503906 1143.660156 2246.472656 1202.921875 2225.433594 C 1238.75 2212.71875 1261.019531 2201.421875 1292.800781 2185.003906 C 1305.351562 2178.519531 1307.109375 2173.933594 1321.878906 2173.703125 C 1351.28125 2173.253906 1373.25 2171.554688 1401.269531 2165.6875 C 1428.011719 2160.089844 1453.558594 2161.074219 1447.308594 2127.59375 C 1436.769531 2131.699219 1434.070312 2136.148438 1419.199219 2139.921875 C 1383.871094 2148.878906 1347.898438 2150.0625 1312.261719 2150.761719 C 1300.261719 2151 1231.46875 2188.160156 1201.550781 2199.851562 C 1130.128906 2227.761719 1077.179688 2236.867188 1001.378906 2214.109375 C 978.910156 2207.363281 962.109375 2196.140625 944.425781 2189.753906 "/>
<path fill-rule="evenodd" fill="rgb(75.976562%, 46.99707%, 35.009766%)" fill-opacity="1" d="M 1146.089844 1165.238281 C 1144.488281 1162.890625 1140.710938 1157.160156 1138.78125 1154.421875 C 1132.460938 1159.71875 1133.878906 1161.871094 1126.808594 1167.671875 C 1089.988281 1197.910156 1051.148438 1218.601562 998.90625 1213.148438 C 941.007812 1207.101562 899.472656 1165.019531 909.601562 1106.671875 C 881.289062 1136.980469 892.394531 1244.46875 985.589844 1257.820312 C 1037.519531 1265.25 1092.390625 1242.871094 1119.050781 1203.328125 C 1123.210938 1197.171875 1127.730469 1191.53125 1131.898438 1184.839844 C 1147.109375 1160.449219 1131.808594 1166.988281 1146.089844 1165.238281 "/>
<path fill-rule="evenodd" fill="rgb(75.976562%, 46.99707%, 35.009766%)" fill-opacity="1" d="M 1285.578125 1057.871094 C 1315.769531 1045.660156 1367.738281 997.75 1378.851562 978.601562 L 1412.699219 987.878906 C 1425.160156 992.601562 1418.261719 987.800781 1420.078125 993.441406 C 1432.308594 986.601562 1447.988281 958.78125 1446.148438 937.441406 C 1410.648438 936.300781 1384.441406 934.28125 1350.160156 931.171875 C 1342.539062 943.148438 1304.121094 968.519531 1282.289062 972.140625 C 1288.121094 1010.589844 1290.730469 1016.230469 1285.578125 1057.871094 "/>
<path fill-rule="evenodd" fill="rgb(65.039062%, 74.021912%, 81.054688%)" fill-opacity="1" d="M 635.5625 1743.789062 C 630.019531 1752.128906 632.960938 1770.351562 636.089844 1778.78125 C 651.976562 1821.628906 710.816406 1785.488281 717.214844 1773.359375 C 732.050781 1745.21875 723.28125 1752.019531 746.59375 1718.351562 L 785.175781 1671.25 C 764.945312 1677.46875 751.828125 1696.019531 733.632812 1703.210938 C 718.285156 1691.929688 691.804688 1677.058594 667.445312 1694.628906 C 635.425781 1717.71875 639.867188 1755.199219 635.5625 1743.789062 "/>
<path fill-rule="evenodd" fill="rgb(65.039062%, 74.021912%, 81.054688%)" fill-opacity="1" d="M 758.8125 1744.25 C 753.109375 1749.199219 752.53125 1752.539062 749.003906 1764.21875 C 724.195312 1846.355469 801.148438 1822.351562 820.777344 1809.460938 C 830.949219 1802.78125 848.488281 1790.488281 855.425781 1783.21875 C 855.109375 1782.800781 854.832031 1782.070312 854.761719 1781.789062 L 853.941406 1778.800781 C 853.828125 1776.410156 854.1875 1776.089844 854.785156 1773.890625 C 855.527344 1771.179688 857.183594 1768.089844 857.933594 1764.570312 C 859.339844 1757.941406 858.851562 1750.691406 857.265625 1743.828125 C 854.035156 1729.851562 843.777344 1723.261719 829.554688 1720.671875 C 814.511719 1717.921875 798.40625 1721.28125 786.214844 1726.640625 C 776.484375 1730.921875 762.253906 1745.378906 758.8125 1744.25 "/>
<path fill-rule="evenodd" fill="rgb(46.99707%, 10.009766%, 7.006836%)" fill-opacity="1" d="M 1345.828125 901.621094 L 1356.710938 913.589844 C 1367.171875 922.78125 1408.878906 918.46875 1423.371094 918.101562 C 1452.238281 917.378906 1484.308594 917.101562 1512.851562 915.019531 C 1552.480469 912.148438 1560.890625 909.730469 1584.171875 891.980469 C 1611.289062 871.300781 1618.789062 875.890625 1654.128906 868.28125 C 1659.769531 845.46875 1671.21875 811.289062 1662.210938 788.28125 C 1654.261719 838.128906 1579.230469 864.988281 1535.570312 876.878906 C 1425.671875 906.828125 1447.628906 896.820312 1345.828125 901.621094 "/>
<path fill-rule="evenodd" fill="rgb(75.976562%, 46.99707%, 35.009766%)" fill-opacity="1" d="M 1059.148438 1037.03125 C 1071.039062 1010.628906 1150.238281 1069.109375 1154.941406 1070.609375 C 1143.648438 1023.710938 1158.859375 976.488281 1157.011719 966.441406 C 1137.140625 962.488281 1142.488281 974.671875 1127.230469 981.5 L 1129.300781 960.730469 L 1047.910156 933.660156 C 1049.601562 940.878906 1052.640625 947.878906 1054.378906 955.390625 C 1056.820312 965.988281 1054.828125 974.878906 1054.640625 982.019531 C 1054.21875 998.25 1060.070312 1016.171875 1059.148438 1037.03125 "/>
<path fill-rule="evenodd" fill="rgb(65.039062%, 74.021912%, 81.054688%)" fill-opacity="1" d="M 1126.730469 1659.878906 C 1135.691406 1663.148438 1127.769531 1657.371094 1130.589844 1664.941406 C 1132.988281 1671.371094 1131.449219 1679.648438 1130.078125 1687.320312 C 1127.191406 1703.46875 1118.628906 1721.558594 1110.960938 1735.441406 C 1106.511719 1743.488281 1101.390625 1748.550781 1098.039062 1756.03125 C 1150.238281 1792.25 1191.640625 1726.71875 1191.96875 1664.429688 C 1192.058594 1646.738281 1193.988281 1614.398438 1183.550781 1602.269531 C 1185.210938 1630.148438 1166.769531 1650.398438 1152.578125 1654.320312 C 1142.039062 1657.238281 1139.871094 1653.339844 1132.21875 1656.128906 C 1125.441406 1658.601562 1132.25 1652.351562 1126.730469 1659.878906 "/>
<path fill-rule="evenodd" fill="rgb(100%, 99.021912%, 99.021912%)" fill-opacity="1" d="M 1968.921875 1372.308594 C 1980.351562 1379.871094 1998.441406 1373.53125 2038.851562 1389.019531 C 2084.171875 1406.398438 2092.328125 1387.53125 2106.480469 1384.171875 C 2092.328125 1357.839844 2080.808594 1346.980469 2056.238281 1332.929688 C 2038.328125 1322.691406 2002.710938 1308.519531 1978.378906 1309.390625 C 1979.398438 1334.78125 1976.480469 1354.769531 1968.921875 1372.308594 "/>
<path fill-rule="evenodd" fill="rgb(75.976562%, 46.99707%, 35.009766%)" fill-opacity="1" d="M 1296.75 1326.371094 C 1282.371094 1325.441406 1268.691406 1327.53125 1253.980469 1325.238281 C 1241.121094 1323.238281 1230.660156 1317.96875 1219.761719 1315.308594 C 1222.828125 1311.050781 1219.980469 1314.410156 1223.789062 1311.011719 L 1234.429688 1302.429688 C 1194.761719 1308.628906 1201.28125 1309.199219 1161.460938 1301.578125 C 1158.671875 1319.109375 1152.859375 1327.441406 1139.890625 1337.558594 L 1128.851562 1346.078125 C 1145.300781 1363.558594 1189.851562 1370.660156 1217.859375 1362.5 C 1243.589844 1355.011719 1218.359375 1356.941406 1261.449219 1350.660156 C 1282.878906 1347.53125 1288.101562 1341.269531 1296.75 1326.371094 "/>
<path fill-rule="evenodd" fill="rgb(14.988708%, 27.001953%, 68.943787%)" fill-opacity="1" d="M 1832.21875 2190.007812 C 1840.660156 2187.050781 1855.519531 2173.550781 1874.691406 2163.886719 C 1888.691406 2156.828125 1906.890625 2148.953125 1922.828125 2144.546875 C 1971.03125 2131.230469 1992.878906 2136.125 2040.808594 2139.933594 C 2033.351562 2121.40625 2007.671875 2112.609375 1988.480469 2107.34375 C 1954.941406 2098.136719 1889.679688 2115.328125 1866.011719 2140.859375 C 1854.839844 2152.910156 1836.710938 2167.96875 1832.21875 2190.007812 "/>
<path fill-rule="evenodd" fill="rgb(45.996094%, 31.005859%, 11.009216%)" fill-opacity="1" d="M 1314.261719 2092.121094 C 1340.738281 2092.40625 1366.339844 2082.34375 1391.929688 2078.734375 C 1391.53125 2113.898438 1375.699219 2130.011719 1346.078125 2138.800781 C 1361.648438 2141.367188 1380.519531 2136.828125 1396.011719 2133.800781 C 1415.980469 2129.898438 1425.179688 2129.082031 1434.269531 2116.679688 C 1464.308594 2075.671875 1444.378906 2057.144531 1438.75 2032.386719 C 1423.261719 2039.945312 1412.160156 2052.101562 1380.410156 2067.617188 C 1365.730469 2074.785156 1346.96875 2082.0625 1331.230469 2085.835938 C 1321.121094 2088.257812 1319.03125 2088.660156 1314.261719 2092.121094 "/>
<path fill-rule="evenodd" fill="rgb(65.039062%, 74.021912%, 81.054688%)" fill-opacity="1" d="M 892.613281 1767.179688 C 884.839844 1774.800781 878.105469 1784.789062 871.117188 1792.308594 C 863.195312 1800.828125 853.828125 1804.53125 849.777344 1816.800781 C 878.195312 1848.097656 933.886719 1819.328125 962.433594 1796.730469 C 965.042969 1794.660156 967.09375 1792.78125 968.878906 1791.21875 C 969.40625 1790.761719 970.964844 1789.410156 971.472656 1788.949219 C 975.148438 1785.679688 972.625 1788.269531 975.421875 1785.339844 C 965.46875 1782.738281 966.210938 1779.199219 957.203125 1773.628906 C 951.214844 1769.921875 945.648438 1767.761719 938.609375 1765.859375 C 917.910156 1760.238281 911.671875 1765.519531 892.613281 1767.179688 "/>
<path fill-rule="evenodd" fill="rgb(14.988708%, 27.001953%, 68.943787%)" fill-opacity="1" d="M 1215.921875 1994.394531 C 1220.070312 2003.605469 1244.238281 2029.980469 1253.25 2039.457031 C 1266.960938 2053.886719 1275.660156 2066.839844 1307.660156 2065.855469 C 1351.050781 2064.519531 1374.539062 2021.871094 1389.039062 1985.753906 C 1369.320312 1994.6875 1354.089844 2018.476562 1306.21875 2027.390625 C 1263.988281 2035.253906 1243.21875 2005.296875 1215.921875 1994.394531 "/>
<path fill-rule="evenodd" fill="rgb(100%, 99.021912%, 99.021912%)" fill-opacity="1" d="M 1194.558594 1027.25 C 1185.800781 1018.199219 1177.28125 1015.628906 1161.558594 1015.441406 C 1156.28125 1158.339844 1255.738281 1125.851562 1266.820312 1080.53125 C 1246.609375 1089.25 1232.761719 1098 1214.480469 1079.859375 C 1203.421875 1068.871094 1194.871094 1049.890625 1194.558594 1027.25 "/>
<path fill-rule="evenodd" fill="rgb(75.976562%, 46.99707%, 35.009766%)" fill-opacity="1" d="M 1553.808594 1015.480469 C 1554.621094 986.890625 1616.480469 928.441406 1637.039062 945.761719 C 1611.128906 955.808594 1599.511719 964.480469 1581.078125 988.109375 L 1599.820312 986.671875 C 1605.058594 968.941406 1642.390625 967.621094 1651.351562 957 C 1647.949219 925.039062 1597.960938 920.339844 1556.949219 963.628906 C 1545.96875 975.21875 1501.550781 1049.730469 1519.800781 1075.261719 C 1528.859375 1070.511719 1526.261719 1062.710938 1535.011719 1045.429688 C 1541.210938 1033.171875 1548.851562 1024.589844 1553.808594 1015.480469 "/>
<path fill-rule="evenodd" fill="rgb(41.992188%, 25%, 7.006836%)" fill-opacity="1" d="M 1511.71875 1161.640625 C 1507.988281 1177.109375 1500.179688 1185.179688 1496.011719 1196.558594 C 1519.53125 1212.589844 1594.621094 1213.609375 1614.308594 1182.511719 C 1624.601562 1166.25 1618.699219 1155.480469 1606.621094 1147.808594 C 1565.480469 1168.929688 1563.101562 1173.210938 1511.71875 1161.640625 "/>
<path fill-rule="evenodd" fill="rgb(75.976562%, 46.99707%, 35.009766%)" fill-opacity="1" d="M 947.707031 945.761719 L 951.316406 1031.078125 C 939.414062 1037.371094 931.371094 1046.460938 925.769531 1062.488281 L 973.128906 1049.941406 C 966.414062 1022.371094 960.964844 1003.351562 965.230469 972.410156 C 969.902344 938.53125 979.277344 936.019531 997.960938 919.230469 C 991.996094 907.269531 965.027344 882.320312 949.84375 916.230469 C 946.3125 924.109375 947.710938 936.308594 947.707031 945.761719 "/>
<path fill-rule="evenodd" fill="rgb(65.039062%, 74.021912%, 81.054688%)" fill-opacity="1" d="M 992.960938 1765.179688 C 996.285156 1767.359375 1000.289062 1762.628906 991.816406 1777.851562 C 987.742188 1785.171875 992.722656 1773.449219 988.699219 1783.328125 C 1064.851562 1779.378906 1106.480469 1732.839844 1128.03125 1663.019531 C 1118.371094 1668.929688 1109.75 1694.671875 1070.890625 1724.328125 C 1060.730469 1732.070312 1045.988281 1740.390625 1033.140625 1746.878906 C 1024.210938 1751.378906 998.953125 1760.011719 992.960938 1765.179688 "/>
<path fill-rule="evenodd" fill="rgb(36.009216%, 59.959412%, 76.951599%)" fill-opacity="1" d="M 1275.679688 1040.210938 C 1247.019531 1085.988281 1217.929688 1051.429688 1222.53125 1008.359375 C 1223.890625 995.601562 1232.128906 983.238281 1231.851562 976 L 1214.589844 974.949219 C 1198.199219 1002.519531 1197.160156 1045.148438 1214.640625 1070.039062 C 1236.25 1100.808594 1276.191406 1079.488281 1275.679688 1040.210938 "/>
<path fill-rule="evenodd" fill="rgb(83.006287%, 18.992615%, 12.988281%)" fill-opacity="1" d="M 1162.378906 953.691406 C 1196.441406 957.648438 1257.890625 964.03125 1284.949219 947.808594 C 1260.691406 918.128906 1225.519531 916.019531 1189.238281 933.480469 L 1162.378906 953.691406 "/>
<path fill-rule="evenodd" fill="rgb(0%, 0%, 0%)" fill-opacity="1" d="M 1553.808594 1015.480469 C 1570.78125 1006.859375 1581.609375 998.71875 1605.191406 1002.660156 C 1606.640625 1020.230469 1601.308594 1032.921875 1595.089844 1045.140625 C 1592.011719 1051.199219 1588.738281 1057.109375 1584.878906 1061.488281 C 1580.199219 1066.808594 1576.949219 1068.460938 1572.070312 1076.289062 C 1603.871094 1068.691406 1645.449219 997.140625 1599.820312 986.671875 L 1581.078125 988.109375 C 1599.511719 964.480469 1611.128906 955.808594 1637.039062 945.761719 C 1616.480469 928.441406 1554.621094 986.890625 1553.808594 1015.480469 "/>
<path fill-rule="evenodd" fill="rgb(36.009216%, 59.959412%, 76.951599%)" fill-opacity="1" d="M 1053.371094 1031.019531 C 1045.671875 1034.589844 1042.121094 1045.839844 1029.050781 1036.378906 C 1013.761719 1025.300781 1014.421875 987.410156 1019.429688 975.910156 C 1024.421875 964.449219 1028.949219 964.210938 1041.089844 961.378906 C 1038.628906 958.609375 1023.941406 934.609375 1006.949219 963.519531 C 996.003906 982.128906 994.746094 1044.511719 1024.820312 1052.761719 C 1049.21875 1059.460938 1050.878906 1057.320312 1053.371094 1031.019531 "/>
<path fill-rule="evenodd" fill="rgb(14.988708%, 27.001953%, 68.943787%)" fill-opacity="1" d="M 1405.261719 1634.261719 L 1406.121094 1638.621094 C 1406.851562 1669.039062 1399.96875 1669.808594 1394.351562 1692.128906 L 1408.53125 1690.421875 C 1433.921875 1687.550781 1451.910156 1651.988281 1440.269531 1621.960938 C 1429.28125 1624.269531 1422.328125 1631.5 1405.261719 1634.261719 "/>
<path fill-rule="evenodd" fill="rgb(67.96875%, 67.96875%, 13.989258%)" fill-opacity="1" d="M 1366.339844 1672.011719 C 1339.890625 1671.949219 1354.011719 1652.550781 1362.808594 1644.910156 C 1373.429688 1635.679688 1380.140625 1624.46875 1392.359375 1618.820312 L 1387.910156 1595.039062 C 1366.488281 1610.488281 1332.679688 1646.878906 1316.398438 1653.941406 C 1322.601562 1667.03125 1347.648438 1682.789062 1366.339844 1672.011719 "/>
<path fill-rule="evenodd" fill="rgb(9.008789%, 15.989685%, 42.993164%)" fill-opacity="1" d="M 1405.261719 1634.261719 C 1422.328125 1631.5 1429.28125 1624.269531 1440.269531 1621.960938 L 1425.421875 1553.410156 C 1414.78125 1564.199219 1418.578125 1563.199219 1399.019531 1581.441406 C 1403.441406 1601.96875 1412 1607.761719 1405.261719 1634.261719 "/>
<path fill-rule="evenodd" fill="rgb(65.039062%, 75%, 80.076599%)" fill-opacity="1" d="M 2040.339844 1498.011719 C 2049.828125 1516.039062 2096.398438 1545 2112.578125 1517.339844 C 2105.96875 1511.070312 2101.78125 1509.238281 2095.378906 1501.191406 C 2090.238281 1494.710938 2085.089844 1486.449219 2079.289062 1480.699219 C 2070.199219 1485.128906 2047.191406 1493.921875 2040.339844 1498.011719 "/>
<path fill-rule="evenodd" fill="rgb(65.039062%, 75%, 80.076599%)" fill-opacity="1" d="M 831.3125 1530.640625 C 818.722656 1530.410156 815.757812 1521.789062 802.949219 1515.460938 C 786.746094 1507.441406 780.699219 1510.171875 762.984375 1508.429688 C 757.835938 1519.070312 754.046875 1517.789062 749.882812 1527.75 C 756.828125 1532.230469 774.570312 1545.460938 788.449219 1543.601562 C 797.898438 1542.328125 826.410156 1535.570312 831.3125 1530.640625 "/>
<path fill-rule="evenodd" fill="rgb(69.921875%, 75.976562%, 80.076599%)" fill-opacity="1" d="M 1161.558594 1015.441406 C 1177.28125 1015.628906 1185.800781 1018.199219 1194.558594 1027.25 C 1192.730469 1002.300781 1197.339844 993.519531 1202.160156 972.480469 L 1175.550781 969.578125 C 1166.511719 988.238281 1164.921875 992.210938 1161.558594 1015.441406 "/>
<path fill-rule="evenodd" fill="rgb(100%, 99.021912%, 99.021912%)" fill-opacity="1" d="M 994.882812 987.710938 L 973.675781 986.820312 C 972.992188 1015.789062 976.484375 1026.019531 984.011719 1049.828125 L 1008.261719 1049.570312 C 998.992188 1022.519531 994.234375 1024.449219 994.882812 987.710938 "/>
<path fill-rule="evenodd" fill="rgb(65.039062%, 75%, 80.076599%)" fill-opacity="1" d="M 1824.101562 1525.109375 C 1840.019531 1552.988281 1890.539062 1570.828125 1899.320312 1520.980469 C 1885.421875 1524.949219 1877.71875 1528.191406 1862.148438 1528.78125 C 1847.78125 1529.308594 1836.28125 1524.929688 1824.101562 1525.109375 "/>
<path fill-rule="evenodd" fill="rgb(69.921875%, 75.976562%, 80.076599%)" fill-opacity="1" d="M 973.675781 986.820312 L 994.882812 987.710938 C 998.21875 957.628906 1004.070312 955.210938 1022.25 940.941406 L 1011.558594 929.238281 C 987.472656 933.71875 976.863281 959.359375 973.675781 986.820312 "/>
<path fill-rule="evenodd" fill="rgb(17.993164%, 15.989685%, 12.988281%)" fill-opacity="1" d="M 874.453125 1125.921875 C 878.035156 1121.199219 881.515625 1109.441406 885.28125 1102.199219 C 901.992188 1070.089844 906.472656 1092.769531 884.027344 1044.738281 C 870.339844 1066.109375 865.402344 1097.488281 874.453125 1125.921875 "/>
<path fill-rule="evenodd" fill="rgb(96.09375%, 96.09375%, 25%)" fill-opacity="1" d="M 1366.339844 1672.011719 C 1384.980469 1664.171875 1393.921875 1644.289062 1392.359375 1618.820312 C 1380.140625 1624.46875 1373.429688 1635.679688 1362.808594 1644.910156 C 1354.011719 1652.550781 1339.890625 1671.949219 1366.339844 1672.011719 "/>
<path fill-rule="evenodd" fill="rgb(65.039062%, 75%, 80.076599%)" fill-opacity="1" d="M 1927.21875 1505.238281 C 1941.988281 1518.71875 1960.660156 1522.988281 1980.050781 1514.589844 C 1974.011719 1496.128906 1959.550781 1480.71875 1938.859375 1492.671875 C 1932.261719 1496.488281 1929.238281 1499.128906 1927.21875 1505.238281 "/>
<path fill-rule="evenodd" fill="rgb(0%, 0%, 0%)" fill-opacity="1" d="M 1012.601562 1541.421875 C 1005.308594 1534.039062 950.144531 1515.78125 954.460938 1537.941406 C 958.546875 1558.949219 1000.628906 1558.171875 1012.601562 1541.421875 "/>
<path fill-rule="evenodd" fill="rgb(65.039062%, 75%, 80.076599%)" fill-opacity="1" d="M 2041.191406 1517.300781 L 2031.25 1500.03125 C 2021.5 1499.25 2012.921875 1500.578125 2002.820312 1499.808594 C 1993.460938 1499.089844 1984.851562 1496.878906 1976.160156 1496.429688 C 1992.941406 1520.921875 2024.058594 1532.171875 2041.191406 1517.300781 "/>
<path fill-rule="evenodd" fill="rgb(0%, 0%, 0%)" fill-opacity="1" d="M 1035.191406 1621.761719 C 1046.039062 1614.078125 1045.089844 1597.761719 1044.78125 1583.898438 C 996.039062 1585.5 1006.859375 1631.550781 1035.191406 1621.761719 "/>
<path fill-rule="evenodd" fill="rgb(0%, 0%, 0%)" fill-opacity="1" d="M 911.609375 1475.441406 C 911.429688 1499.441406 945.515625 1495.730469 963.191406 1493.019531 C 961.046875 1488.328125 960.117188 1487.441406 953.226562 1483.390625 C 942.800781 1477.261719 921.285156 1468.03125 911.609375 1475.441406 "/>
<path fill-rule="evenodd" fill="rgb(9.008789%, 15.989685%, 42.993164%)" fill-opacity="1" d="M 1408.53125 1690.421875 L 1394.351562 1692.128906 C 1399.96875 1669.808594 1406.851562 1669.039062 1406.121094 1638.621094 C 1405.769531 1639.230469 1405.269531 1639.441406 1405.109375 1640.46875 L 1402.460938 1645.949219 C 1398.328125 1655.621094 1398.019531 1660.121094 1389.449219 1669.128906 C 1379.128906 1679.988281 1375 1679.5 1363.300781 1687.859375 C 1374.699219 1692.96875 1398.03125 1697.691406 1408.53125 1690.421875 "/>
<path fill-rule="evenodd" fill="rgb(0%, 0%, 0%)" fill-opacity="1" d="M 1373.511719 707.730469 C 1378.320312 716.238281 1392.410156 757.628906 1404.539062 746.070312 C 1412.449219 738.539062 1398.171875 725.859375 1394.109375 721.789062 C 1386.738281 714.371094 1386.140625 710.210938 1373.511719 707.730469 "/>
<path fill-rule="evenodd" fill="rgb(0%, 0%, 0%)" fill-opacity="1" d="M 1397.558594 676.230469 C 1408.148438 686.691406 1427 704.789062 1442.230469 699.390625 C 1443.5 680.410156 1405.320312 674.328125 1397.558594 676.230469 "/>
<path fill-rule="evenodd" fill="rgb(9.008789%, 16.992188%, 42.993164%)" fill-opacity="1" d="M 1476.46875 1248.53125 C 1475.851562 1231.828125 1475.121094 1227 1482.28125 1213.089844 C 1475.070312 1218.53125 1469.960938 1223.449219 1463.28125 1229.269531 C 1455.46875 1236.089844 1451.5 1236.910156 1445.140625 1244.269531 L 1476.46875 1248.53125 "/>
<path fill-rule="evenodd" fill="rgb(4.998779%, 4.998779%, 4.998779%)" fill-opacity="1" d="M 1126.929688 1619.480469 C 1124.898438 1588.339844 1102.019531 1549.410156 1084.558594 1547.078125 C 1106.878906 1566.351562 1119.539062 1609.699219 1122.949219 1615.109375 C 1125.519531 1619.179688 1124.148438 1616.878906 1126.929688 1619.480469 "/>
<path fill-rule="evenodd" fill="rgb(0%, 0%, 0%)" fill-opacity="1" d="M 1331.839844 735.921875 C 1331.148438 747.929688 1328.859375 778.46875 1347.640625 773.769531 C 1350.539062 764.109375 1346.011719 758.671875 1342.421875 751.738281 C 1337.929688 743.058594 1337.839844 739.789062 1331.839844 735.921875 "/>
<path fill-rule="evenodd" fill="rgb(0%, 0%, 0%)" fill-opacity="1" d="M 1443.421875 1339.421875 C 1448.261719 1344.769531 1454.230469 1344.46875 1462.28125 1348.140625 C 1471.808594 1352.46875 1473.328125 1356.300781 1480.351562 1348.488281 C 1477.988281 1341.828125 1474.429688 1340.480469 1465.601562 1337.550781 C 1461.570312 1336.210938 1459.339844 1335.589844 1454.699219 1335.839844 C 1451.109375 1336.03125 1444.230469 1338.261719 1443.421875 1339.421875 "/>
<path fill-rule="evenodd" fill="rgb(1.000977%, 0%, 0%)" fill-opacity="1" d="M 1397.949219 633.558594 C 1401.730469 639.789062 1403.640625 639.820312 1415.398438 645.160156 C 1425.230469 649.628906 1428.820312 650.800781 1431.058594 639.488281 C 1423.128906 630.289062 1412.328125 633.191406 1397.949219 633.558594 "/>
<path fill-rule="evenodd" fill="rgb(100%, 99.021912%, 99.021912%)" fill-opacity="1" d="M 1263.96875 1012.921875 C 1268.320312 991.789062 1252.820312 993.070312 1248.328125 1000.101562 C 1241.171875 1011.300781 1251.390625 1018.148438 1263.96875 1012.921875 "/>
<path fill-rule="evenodd" fill="rgb(0%, 0%, 0%)" fill-opacity="1" d="M 1448.761719 1309.898438 C 1455.429688 1308.898438 1459.050781 1307.96875 1465.660156 1306.359375 C 1477.328125 1303.519531 1475.078125 1306.160156 1476.191406 1297.851562 C 1465.378906 1290.859375 1452.460938 1299.628906 1448.761719 1309.898438 "/>
<path fill-rule="evenodd" fill="rgb(98.046875%, 98.046875%, 98.046875%)" fill-opacity="1" d="M 1042.761719 1001.261719 C 1047.128906 991.789062 1047.390625 989.320312 1039.898438 982.980469 C 1034.578125 984.609375 1032.890625 983.5 1032.46875 991.589844 C 1031.980469 1001 1035.828125 1000.699219 1042.761719 1001.261719 "/>
<path fill-rule="evenodd" fill="rgb(1.000977%, 0%, 0%)" fill-opacity="1" d="M 1419.378906 1380.148438 C 1423.609375 1385.28125 1428.480469 1397.019531 1437.929688 1394.890625 C 1438.25 1394.210938 1442.570312 1398.019531 1439.128906 1388.25 C 1437.53125 1383.710938 1428.53125 1378.800781 1419.378906 1380.148438 "/>
</svg>
